<?xml version="1.0" standalone="no"?>
<!DOCTYPE svg PUBLIC "-//W3C//DTD SVG 20010904//EN"
 "http://www.w3.org/TR/2001/REC-SVG-20010904/DTD/svg10.dtd">
<svg version="1.0" xmlns="http://www.w3.org/2000/svg"
 width="257.000000pt" height="257.000000pt" viewBox="0 0 257.000000 257.000000"
 preserveAspectRatio="xMidYMid meet">
<metadata>
Created by potrace 1.14, written by Peter Selinger 2001-2017
</metadata>
<g transform="translate(0.000000,257.000000) scale(0.100000,-0.100000)"
fill="#000000" stroke="none">
<path d="M1247 2532 c-48 -30 -1227 -1230 -1227 -1248 0 -10 117 -135 266
-284 233 -233 260 -256 218 -195 -121 180 -171 391 -139 597 74 486 540 816
1085 767 133 -12 216 -34 281 -75 33 -20 38 -22 30 -7 -17 31 -445 451 -466
457 -11 3 -32 -2 -48 -12z"/>
<path d="M1806 2013 c-3 -10 -19 -67 -36 -128 -17 -60 -33 -115 -35 -122 -3
-8 -29 0 -82 27 -107 53 -188 72 -308 73 -189 0 -346 -63 -475 -192 -119 -120
-170 -237 -170 -396 0 -150 53 -270 169 -386 127 -126 287 -192 471 -192 135
0 197 18 383 111 4 2 7 -72 7 -166 l0 -169 -77 -36 c-68 -32 -94 -38 -198 -47
-261 -25 -519 42 -724 187 -54 38 -13 -7 218 -243 156 -159 294 -293 307 -298
15 -6 32 -6 47 0 33 14 1237 1228 1237 1248 0 16 -706 746 -721 746 -4 0 -10
-8 -13 -17z"/>
</g>
</svg>
