<svg width="80" height="69" viewBox="0 0 80 69" fill="none" xmlns="http://www.w3.org/2000/svg">
<path fill-rule="evenodd" clip-rule="evenodd" d="M10 0C4.47715 0 0 4.47715 0 10V27.3892C2.50902 27.7842 4.46062 30.8171 4.46062 34.5C4.46062 38.1829 2.50902 41.2159 0 41.6109V59C0 64.5229 4.47715 69 10 69H70C75.5229 69 80 64.5228 80 59V10C80 4.47715 75.5229 0 70 0H10Z" fill="white"/>
<g clip-path="url(#clip0_0_213)">
<path d="M27.0722 56.0901C26.5791 56.0901 26.0896 55.9363 25.6717 55.6341C24.8934 55.07 24.5298 54.1005 24.7416 53.1649L27.6366 40.4125L17.8187 31.8025C17.097 31.1725 16.8213 30.1747 17.1176 29.2618C17.4139 28.3506 18.2201 27.7055 19.1745 27.6173L32.1648 26.4379L37.3007 14.4189C37.6794 13.5358 38.5418 12.9656 39.5001 12.9656C40.4583 12.9656 41.3208 13.5359 41.6995 14.4168L46.8354 26.4379L59.8236 27.6173C60.7801 27.7034 61.5863 28.3506 61.8826 29.2618C62.1789 30.173 61.9049 31.1725 61.1832 31.8025L51.3653 40.4108L54.2603 53.1628C54.4724 54.1005 54.1085 55.07 53.3305 55.6324C52.5542 56.1948 51.5191 56.2381 50.7016 55.7468L39.5001 49.0528L28.2986 55.7505C27.9199 55.9754 27.4979 56.0901 27.0722 56.0901V56.0901ZM39.5001 46.1692C39.9258 46.1692 40.3474 46.2835 40.7265 46.5084L51.298 52.8312L48.5658 40.795C48.3707 39.9384 48.6615 39.044 49.3235 38.4645L58.5938 30.3344L46.329 29.2206C45.4459 29.1399 44.6865 28.5848 44.3414 27.7711L39.5001 16.4288L34.6529 27.7728C34.3117 28.581 33.5522 29.1362 32.6712 29.2168L20.4047 30.3306L29.6746 38.4607C30.3386 39.042 30.6291 39.9346 30.4324 40.7933L27.7022 52.8291L38.2737 46.5084C38.6524 46.2835 39.0744 46.1692 39.5001 46.1692V46.1692ZM32.0656 26.6703C32.0656 26.6703 32.0656 26.6724 32.0635 26.6741L32.0656 26.6703ZM46.9308 26.6649L46.9329 26.6686C46.9329 26.6666 46.9329 26.6666 46.9308 26.6649Z" fill="#212D55"/>
</g>
<defs>
<clipPath id="clip0_0_213">
<rect width="45" height="45" fill="white" transform="translate(17 12)"/>
</clipPath>
</defs>
</svg>
