<svg width="80" height="69" viewBox="0 0 80 69" fill="none" xmlns="http://www.w3.org/2000/svg">
<path fill-rule="evenodd" clip-rule="evenodd" d="M10 0C4.47715 0 0 4.47715 0 10V27.3892C2.50902 27.7842 4.46062 30.8171 4.46062 34.5C4.46062 38.1829 2.50902 41.2159 0 41.6109V59C0 64.5229 4.47715 69 10 69H70C75.5229 69 80 64.5228 80 59V10C80 4.47715 75.5229 0 70 0H10Z" fill="white"/>
<g clip-path="url(#clip0_0_141)">
<path d="M17.7502 57.0869H53.7501C54.1645 57.0869 54.5002 56.7512 54.5002 56.3371V49.587H59.75C60.1644 49.587 60.5002 49.2513 60.5002 48.8372V41.337C60.5002 40.9229 60.1644 40.5871 59.75 40.5871H54.5002V33.8371C54.5002 33.4227 54.1645 33.0869 53.7501 33.0869H52.3737C52.4794 32.5966 52.3675 32.0844 52.0671 31.6827L48.6781 27.1652L50.243 25.9914C50.9383 25.4709 51.3265 24.6367 51.2775 23.7694L51.2023 22.4188C51.1817 22.0525 51.3458 21.7002 51.6393 21.4801L53.2038 20.3067L53.8623 21.1842C53.9815 21.3432 54.159 21.4486 54.356 21.4767C54.3911 21.4815 54.4264 21.4843 54.4621 21.4839C54.6245 21.4843 54.7824 21.4314 54.9122 21.3339L61.1003 16.6918C62.0939 15.9464 62.2954 14.5364 61.55 13.5425L61.1333 12.9863C60.3869 11.9938 58.9775 11.7929 57.9833 12.5372L51.7959 17.179C51.4646 17.4275 51.3973 17.8979 51.6458 18.2292L52.304 19.1067L50.7395 20.2806C50.0442 20.801 49.6556 21.635 49.705 22.5022L49.7799 23.8528C49.8008 24.2192 49.6367 24.5718 49.3432 24.7915L47.7786 25.9653L44.3893 21.4479C44.0347 20.9676 43.4586 20.7029 42.8629 20.7465C42.2947 20.7877 41.787 21.1172 41.5174 21.6195L35.3548 33.0869H17.7502C17.3358 33.0869 17 33.4227 17 33.8371V41.337C17 41.7514 17.3358 42.0871 17.7502 42.0871H22.9999V48.0871H17.7502C17.3358 48.0871 17 48.4228 17 48.8372V56.3371C17 56.7512 17.3358 57.0869 17.7502 57.0869V57.0869ZM58.8835 13.7368C59.2144 13.4882 59.6844 13.5552 59.9333 13.8865L60.3501 14.4427C60.5984 14.774 60.5311 15.2437 60.2001 15.4922L54.6118 19.6846L53.2952 17.9288L58.8835 13.7368ZM30.5002 49.587H41.0001V55.587H30.5002V49.587ZM36.5001 42.0871H47V48.0871H36.5001V42.0871ZM53.0003 55.587H42.5V49.587H53.0003V55.587ZM59.0002 48.0871H48.5V42.0871H59.0002V48.0871ZM53.0003 40.5871H42.5V36.2197L50.1768 34.5869H53.0003V40.5871ZM42.8392 22.3302C42.8646 22.2777 42.9175 22.244 42.9759 22.2423L42.9906 22.2416C43.0703 22.243 43.1441 22.2825 43.1894 22.3477L46.578 26.8652L43.484 29.1864C43.1527 29.435 43.0854 29.905 43.334 30.2366C43.5825 30.5679 44.0525 30.6349 44.3842 30.3866L47.4782 28.0654L50.8672 32.5829C50.9211 32.6488 50.9369 32.7377 50.9084 32.8177C50.8905 32.8733 50.8435 32.9142 50.7858 32.9245L35.9065 36.0886C35.8141 36.103 35.7215 36.0635 35.6682 35.9866C35.6085 35.9145 35.5965 35.8143 35.6373 35.7298L42.8392 22.3302ZM34.4687 36.8868C34.8683 37.4365 35.5543 37.6984 36.2186 37.5556L41.0001 36.5387V40.5871H30.5002V34.5869H34.5483L34.3159 35.0195C33.9945 35.6179 34.0546 36.3488 34.4687 36.8868V36.8868ZM18.5 37.5872H20C20.4144 37.5872 20.7501 37.2514 20.7501 36.837C20.7501 36.423 20.4144 36.0872 20 36.0872H18.5V34.5869H29.0002V40.5871H18.5V37.5872ZM24.4999 42.0871H35.0001V48.0871H24.4999V42.0871ZM18.5 49.587H29.0002V55.587H18.5V49.587Z" fill="#212D55"/>
<path d="M26.7499 36.837C26.7499 36.4229 26.4142 36.0872 25.9998 36.0872H22.9998C22.5858 36.0872 22.25 36.4229 22.25 36.837C22.25 37.2514 22.5858 37.5871 22.9998 37.5871H25.9998C26.4142 37.5871 26.7499 37.2514 26.7499 36.837V36.837Z" fill="#212D55"/>
</g>
<defs>
<clipPath id="clip0_0_141">
<rect width="45" height="45" fill="white" transform="translate(17 12)"/>
</clipPath>
</defs>
</svg>
