<svg width="80" height="69" viewBox="0 0 80 69" fill="none" xmlns="http://www.w3.org/2000/svg">
<path fill-rule="evenodd" clip-rule="evenodd" d="M10 0C4.47715 0 0 4.47715 0 10V27.3892C2.50902 27.7842 4.46062 30.8171 4.46062 34.5C4.46062 38.1829 2.50902 41.2159 0 41.6109V59C0 64.5229 4.47715 69 10 69H70C75.5229 69 80 64.5228 80 59V10C80 4.47715 75.5229 0 70 0H10Z" fill="white"/>
<path d="M59.8901 47.8594H57.5231L45.8732 23.1889L46.3867 21.3918C46.5183 20.9309 46.5544 20.4479 46.4925 19.9726C46.4307 19.4973 46.2724 19.0397 46.0272 18.6278C45.782 18.2159 45.4552 17.8586 45.0669 17.5776C44.6785 17.2967 44.2368 17.0981 43.7689 16.9941L42.9417 16.8103C42.067 16.6169 41.1514 16.7643 40.3816 17.2225C39.6118 17.6807 39.0457 18.4152 38.7986 19.2763L37.0606 25.3594H35.6481L34.6232 23.1889L35.1367 21.3918C35.2683 20.9309 35.3044 20.4479 35.2425 19.9726C35.1807 19.4973 35.0224 19.0397 34.7772 18.6278C34.532 18.2159 34.2052 17.8586 33.8169 17.5776C33.4285 17.2967 32.9868 17.0981 32.5189 16.9941L31.6685 16.8052C30.7992 16.6145 29.8899 16.7596 29.1231 17.2114C28.3563 17.6632 27.7887 18.3882 27.5343 19.2411L18.4321 51.1832C18.4069 51.272 18.3994 51.365 18.4102 51.4567C18.4209 51.5485 18.4496 51.6372 18.4946 51.7179C18.5397 51.7986 18.6001 51.8696 18.6726 51.9268C18.7451 51.9841 18.8281 52.0266 18.917 52.0518C19.0058 52.077 19.0988 52.0844 19.1906 52.0737C19.2823 52.063 19.3711 52.0343 19.4517 51.9892C19.5324 51.9442 19.6034 51.8837 19.6607 51.8113C19.7179 51.7388 19.7604 51.6558 19.7856 51.5669L20.8365 47.8594H30.632L29.6828 51.1817C29.6574 51.2704 29.6497 51.3634 29.6603 51.4551C29.6708 51.5468 29.6992 51.6356 29.7441 51.7163C29.7889 51.7971 29.8492 51.8682 29.9215 51.9256C29.9938 51.9831 30.0767 52.0257 30.1655 52.0511C30.2543 52.0765 30.3472 52.0841 30.4389 52.0736C30.5307 52.0631 30.6194 52.0346 30.7002 51.9898C30.7809 51.945 30.852 51.8847 30.9094 51.8124C30.9669 51.7401 31.0095 51.6572 31.0349 51.5684L35.5573 35.74L43.0824 51.6754C43.1393 51.7959 43.2293 51.8977 43.3419 51.969C43.4545 52.0403 43.585 52.0782 43.7182 52.0781H59.8901C60.0766 52.0781 60.2554 52.0041 60.3873 51.8722C60.5191 51.7403 60.5932 51.5615 60.5932 51.375V48.5625C60.5932 48.376 60.5191 48.1972 60.3873 48.0653C60.2554 47.9335 60.0766 47.8594 59.8901 47.8594ZM40.1508 19.6627C40.2989 19.1459 40.6385 18.7051 41.1004 18.4302C41.5623 18.1553 42.1117 18.0669 42.6365 18.1831L43.4639 18.3669C43.7446 18.4293 44.0096 18.5484 44.2426 18.717C44.4756 18.8856 44.6717 19.1 44.8188 19.3471C44.9659 19.5942 45.0609 19.8688 45.098 20.154C45.1351 20.4392 45.1135 20.7289 45.0345 21.0055L44.594 22.5469H39.3268L40.1508 19.6627ZM28.8832 19.6395C29.0359 19.1279 29.3764 18.6929 29.8364 18.4218C30.2964 18.1508 30.8419 18.0636 31.3634 18.1779L32.2139 18.3669C32.4946 18.4293 32.7596 18.5484 32.9926 18.717C33.2257 18.8856 33.4217 19.1 33.5688 19.3471C33.7159 19.5943 33.8109 19.8689 33.848 20.1541C33.8851 20.4393 33.8635 20.729 33.7845 21.0056L33.3441 22.5469H28.024L28.8832 19.6395ZM23.6275 38.0156L24.4249 35.2031H34.2481L33.4445 38.0156H23.6275ZM33.0428 39.4219L32.2392 42.2344H22.4311L23.2285 39.4219H33.0428ZM24.8236 33.7969L25.621 30.9844H33.3114L34.6396 33.7969H24.8236ZM26.0198 29.5781L26.8172 26.7656H31.3196L32.6477 29.5781H26.0198ZM21.2352 46.4531L22.0326 43.6406H31.8374L31.0338 46.4531H21.2352ZM47.937 50.6719H44.1637L32.4009 25.7623C32.344 25.6418 32.254 25.5399 32.1414 25.4686C32.0289 25.3973 31.8984 25.3594 31.7651 25.3594H27.2159L27.6146 23.9531H33.4289L45.1918 48.8628C45.2487 48.9833 45.3387 49.0851 45.4512 49.1564C45.5638 49.2278 45.6943 49.2656 45.8276 49.2656H47.937V50.6719ZM49.3432 50.6719V48.5625C49.3432 48.376 49.2691 48.1972 49.1373 48.0653C49.0054 47.9335 48.8266 47.8594 48.6401 47.8594H46.2731L36.3122 26.7656H42.5696L53.8586 50.6719H49.3432ZM59.187 50.6719H55.4137L43.6509 25.7623C43.594 25.6418 43.504 25.5399 43.3914 25.4686C43.2789 25.3973 43.1484 25.3594 43.0151 25.3594H38.5232L38.9249 23.9531H44.679L56.4418 48.8628C56.4987 48.9833 56.5887 49.0851 56.7012 49.1564C56.8138 49.2278 56.9443 49.2656 57.0776 49.2656H59.187V50.6719Z" fill="#212D55"/>
</svg>
