<svg width="80" height="69" viewBox="0 0 80 69" fill="none" xmlns="http://www.w3.org/2000/svg">
<path fill-rule="evenodd" clip-rule="evenodd" d="M10 0C4.47715 0 0 4.47715 0 10V27.3892C2.50902 27.7842 4.46062 30.8171 4.46062 34.5C4.46062 38.1829 2.50902 41.2159 0 41.6109V59C0 64.5229 4.47715 69 10 69H70C75.5229 69 80 64.5228 80 59V10C80 4.47715 75.5229 0 70 0H10Z" fill="white"/>
<g clip-path="url(#clip0_0_167)">
<path d="M61.25 55.5H56.75V30.75C56.75 30.3358 56.4142 30 56 30H45.5V12.75C45.5 12.3358 45.1642 12 44.75 12H25.25C24.8358 12 24.5 12.3358 24.5 12.75V55.5H17.75C17.3358 55.5 17 55.8358 17 56.25C17 56.6642 17.3358 57 17.75 57H61.25C61.6642 57 62 56.6642 62 56.25C62 55.8358 61.6642 55.5 61.25 55.5ZM32.75 55.5H29.75V48.75C29.75 48.3358 30.0858 48 30.5 48H32C32.4142 48 32.75 48.3358 32.75 48.75V55.5ZM35.75 30.75V55.5H34.25V48.75C34.25 47.5073 33.2427 46.5 32 46.5H30.5C29.2573 46.5 28.25 47.5073 28.25 48.75V55.5H26V13.5H44V30H36.5C36.0858 30 35.75 30.3358 35.75 30.75ZM55.25 55.5H37.25V31.5H55.25V55.5Z" fill="#212D55"/>
<path d="M41 22.5H36.5C36.0858 22.5 35.75 22.8358 35.75 23.25V27.75C35.75 28.1642 36.0858 28.5 36.5 28.5H41C41.4142 28.5 41.75 28.1642 41.75 27.75V23.25C41.75 22.8358 41.4142 22.5 41 22.5ZM40.25 27H37.25V24H40.25V27Z" fill="#212D55"/>
<path d="M41 15.0001H36.5C36.0858 15.0001 35.75 15.3359 35.75 15.7501V20.2501C35.75 20.6642 36.0858 21.0001 36.5 21.0001H41C41.4142 21.0001 41.75 20.6642 41.75 20.2501V15.7501C41.75 15.3359 41.4142 15.0001 41 15.0001ZM40.25 19.5001H37.25V16.5001H40.25V19.5001Z" fill="#212D55"/>
<path d="M33.5 22.5H29C28.5858 22.5 28.25 22.8358 28.25 23.25V27.75C28.25 28.1642 28.5858 28.5 29 28.5H33.5C33.9142 28.5 34.25 28.1642 34.25 27.75V23.25C34.25 22.8358 33.9142 22.5 33.5 22.5ZM32.75 27H29.75V24H32.75V27Z" fill="#212D55"/>
<path d="M33.5 15.0001H29C28.5858 15.0001 28.25 15.3359 28.25 15.7501V20.2501C28.25 20.6642 28.5858 21.0001 29 21.0001H33.5C33.9142 21.0001 34.25 20.6642 34.25 20.2501V15.7501C34.25 15.3359 33.9142 15.0001 33.5 15.0001ZM32.75 19.5001H29.75V16.5001H32.75V19.5001Z" fill="#212D55"/>
<path d="M33.5 30H29C28.5858 30 28.25 30.3358 28.25 30.75V35.25C28.25 35.6642 28.5858 36 29 36H33.5C33.9142 36 34.25 35.6642 34.25 35.25V30.75C34.25 30.3358 33.9142 30 33.5 30ZM32.75 34.5H29.75V31.5H32.75V34.5Z" fill="#212D55"/>
<path d="M33.5 37.5001H29C28.5858 37.5001 28.25 37.8359 28.25 38.2501V42.7501C28.25 43.1642 28.5858 43.5001 29 43.5001H33.5C33.9142 43.5001 34.25 43.1642 34.25 42.7501V38.2501C34.25 37.8359 33.9142 37.5001 33.5 37.5001ZM32.75 42.0001H29.75V39.0001H32.75V42.0001Z" fill="#212D55"/>
<path d="M47.75 46.5H52.25C52.6642 46.5 53 46.1642 53 45.75V41.25C53 40.8358 52.6642 40.5 52.25 40.5H47.75C47.3358 40.5 47 40.8358 47 41.25V45.75C47 46.1642 47.3358 46.5 47.75 46.5ZM48.5 42H51.5V45H48.5V42Z" fill="#212D55"/>
<path d="M47.75 39H52.25C52.6642 39 53 38.6642 53 38.25V33.75C53 33.3358 52.6642 33 52.25 33H47.75C47.3358 33 47 33.3358 47 33.75V38.25C47 38.6642 47.3358 39 47.75 39ZM48.5 34.5H51.5V37.5H48.5V34.5Z" fill="#212D55"/>
<path d="M47.75 53.9999H52.25C52.6642 53.9999 53 53.6641 53 53.2499V48.7499C53 48.3358 52.6642 47.9999 52.25 47.9999H47.75C47.3358 47.9999 47 48.3358 47 48.7499V53.2499C47 53.6641 47.3358 53.9999 47.75 53.9999ZM48.5 49.4999H51.5V52.4999H48.5V49.4999Z" fill="#212D55"/>
<path d="M40.25 46.5H44.75C45.1642 46.5 45.5 46.1642 45.5 45.75V41.25C45.5 40.8358 45.1642 40.5 44.75 40.5H40.25C39.8358 40.5 39.5 40.8358 39.5 41.25V45.75C39.5 46.1642 39.8358 46.5 40.25 46.5ZM41 42H44V45H41V42Z" fill="#212D55"/>
<path d="M40.25 39H44.75C45.1642 39 45.5 38.6642 45.5 38.25V33.75C45.5 33.3358 45.1642 33 44.75 33H40.25C39.8358 33 39.5 33.3358 39.5 33.75V38.25C39.5 38.6642 39.8358 39 40.25 39ZM41 34.5H44V37.5H41V34.5Z" fill="#212D55"/>
<path d="M40.25 53.9999H44.75C45.1642 53.9999 45.5 53.6641 45.5 53.2499V48.7499C45.5 48.3358 45.1642 47.9999 44.75 47.9999H40.25C39.8358 47.9999 39.5 48.3358 39.5 48.7499V53.2499C39.5 53.6641 39.8358 53.9999 40.25 53.9999ZM41 49.4999H44V52.4999H41V49.4999Z" fill="#212D55"/>
</g>
<defs>
<clipPath id="clip0_0_167">
<rect width="45" height="45" fill="white" transform="translate(17 12)"/>
</clipPath>
</defs>
</svg>
