<svg width="80" height="69" viewBox="0 0 80 69" fill="none" xmlns="http://www.w3.org/2000/svg">
<path fill-rule="evenodd" clip-rule="evenodd" d="M10 0C4.47715 0 0 4.47715 0 10V27.3892C2.50902 27.7842 4.46062 30.8171 4.46062 34.5C4.46062 38.1829 2.50902 41.2159 0 41.6109V59C0 64.5229 4.47715 69 10 69H70C75.5229 69 80 64.5228 80 59V10C80 4.47715 75.5229 0 70 0H10Z" fill="white"/>
<g clip-path="url(#clip0_0_152)">
<path d="M41.7447 22.9187H33.6992V46.0814H36.3359V38.7389H41.7447C46.0318 38.7389 49.5195 35.2512 49.5195 30.9642V30.6933C49.5195 26.4065 46.0318 22.9187 41.7447 22.9187ZM46.8828 30.9643C46.8828 33.7974 44.5779 36.1023 41.7447 36.1023H36.3359V25.5554H41.7447C44.5779 25.5554 46.8828 27.8604 46.8828 30.6934V30.9643Z" fill="#212D55"/>
<path d="M55.41 18.59C51.1602 14.3404 45.51 12 39.5 12C33.49 12 27.8398 14.3404 23.59 18.59C19.3404 22.8398 17 28.4901 17 34.5C17 40.5099 19.3404 46.1602 23.5901 50.4099C27.8398 54.6596 33.49 57 39.5 57C45.51 57 51.1602 54.6596 55.41 50.41C59.6596 46.1602 62 40.5099 62 34.5C62 28.4901 59.6596 22.8398 55.41 18.59ZM53.5455 48.5455C49.7938 52.2971 44.8056 54.3633 39.5 54.3633C34.1943 54.3633 29.2063 52.2971 25.4546 48.5454C21.7029 44.7937 19.6367 39.8056 19.6367 34.5C19.6367 29.1944 21.7029 24.2063 25.4546 20.4545C29.2063 16.7029 34.1943 14.6367 39.5 14.6367C44.8056 14.6367 49.7938 16.7029 53.5455 20.4545C57.2971 24.2063 59.3633 29.1944 59.3633 34.5C59.3633 39.8056 57.2971 44.7938 53.5455 48.5455Z" fill="#212D55"/>
</g>
<defs>
<clipPath id="clip0_0_152">
<rect width="45" height="45" fill="white" transform="translate(17 12)"/>
</clipPath>
</defs>
</svg>
