<svg width="80" height="69" viewBox="0 0 80 69" fill="none" xmlns="http://www.w3.org/2000/svg">
<path fill-rule="evenodd" clip-rule="evenodd" d="M10 0C4.47715 0 0 4.47715 0 10V27.3892C2.50902 27.7842 4.46062 30.8171 4.46062 34.5C4.46062 38.1829 2.50902 41.2159 0 41.6109V59C0 64.5229 4.47715 69 10 69H70C75.5229 69 80 64.5228 80 59V10C80 4.47715 75.5229 0 70 0H10Z" fill="white"/>
<path d="M17.7031 51.375H61.2969C61.6857 51.375 62 51.0607 62 50.6719V41.5298V36.6115C62 35.0597 60.7372 33.7969 59.1854 33.7969H51.3216C51.0291 32.9827 50.2578 32.3955 49.3438 32.3955H46.5453C46.5404 32.3955 46.5362 32.3927 46.5312 32.3927C45.3683 32.3927 44.4219 31.4463 44.4219 30.2834V22.5469C44.4219 19.8335 42.2134 17.625 39.5 17.625C36.7866 17.625 34.5781 19.8335 34.5781 22.5469V30.2834C34.5781 31.4463 33.6317 32.3927 32.4688 32.3927C32.4638 32.3927 32.4596 32.3955 32.4547 32.3955H29.6562C28.7422 32.3955 27.9709 32.9827 27.6784 33.7969H19.8146C19.8083 33.7969 19.8027 33.8004 19.7963 33.8004C18.2523 33.8102 17 35.066 17 36.6115V41.5298V50.6719C17 51.0607 17.3143 51.375 17.7031 51.375V51.375ZM60.5938 47.8594H18.4062V42.233H60.5938V47.8594ZM18.4062 49.9688V49.2656H60.5938V49.9688H18.4062ZM35.9844 30.2834V22.5469C35.9844 20.6084 37.5615 19.0312 39.5 19.0312C41.4385 19.0312 43.0156 20.6084 43.0156 22.5469V30.2834C43.0156 32.212 44.5787 33.7814 46.5038 33.7962C46.5137 33.7969 46.5214 33.8018 46.5312 33.8018H49.3438C49.7319 33.8018 50.0469 34.1168 50.0469 34.5049V38.0177H28.9531V34.5049C28.9531 34.1168 29.2681 33.8018 29.6562 33.8018H32.4688C32.4786 33.8018 32.4863 33.7969 32.4962 33.7962C34.4213 33.7814 35.9844 32.212 35.9844 30.2834V30.2834ZM19.8125 35.2052C19.816 35.2052 19.8195 35.2031 19.823 35.2031H27.5469V38.7209C27.5469 39.1097 27.8612 39.424 28.25 39.424H50.75C51.1388 39.424 51.4531 39.1097 51.4531 38.7209V35.2031H59.1854C59.9623 35.2031 60.5938 35.8345 60.5938 36.6115V40.8267H18.4062V36.6115C18.4062 35.8359 19.037 35.2052 19.8125 35.2052Z" fill="#212D55"/>
<path d="M39.5 24.6556C40.663 24.6556 41.6094 23.7092 41.6094 22.5462C41.6094 21.3832 40.663 20.4368 39.5 20.4368C38.337 20.4368 37.3906 21.3832 37.3906 22.5462C37.3906 23.7092 38.337 24.6556 39.5 24.6556ZM39.5 21.8431C39.8881 21.8431 40.2031 22.1581 40.2031 22.5462C40.2031 22.9343 39.8881 23.2493 39.5 23.2493C39.1119 23.2493 38.7969 22.9343 38.7969 22.5462C38.7969 22.1581 39.1119 21.8431 39.5 21.8431Z" fill="#212D55"/>
</svg>
