<svg width="80" height="69" viewBox="0 0 80 69" fill="none" xmlns="http://www.w3.org/2000/svg">
<path fill-rule="evenodd" clip-rule="evenodd" d="M10 0C4.47715 0 0 4.47715 0 10V27.3892C2.50902 27.7842 4.46062 30.8171 4.46062 34.5C4.46062 38.1829 2.50902 41.2159 0 41.6109V59C0 64.5229 4.47715 69 10 69H70C75.5229 69 80 64.5228 80 59V10C80 4.47715 75.5229 0 70 0H10Z" fill="white"/>
<path d="M48.0659 50.9688C47.9047 50.9688 47.75 50.9047 47.6359 50.7907C47.5219 50.6766 47.4578 50.5219 47.4578 50.3607V18.0567L39.7507 14.8234L33.2786 17.3696V50.3607C33.2786 50.5219 33.2145 50.6766 33.1005 50.7907C32.9864 50.9047 32.8317 50.9688 32.6705 50.9688C32.5092 50.9688 32.3545 50.9047 32.2405 50.7907C32.1264 50.6766 32.0623 50.5219 32.0623 50.3607V16.9548C32.0623 16.8327 32.0991 16.7133 32.1678 16.6123C32.2366 16.5113 32.3342 16.4334 32.4479 16.3887L39.5354 13.6005C39.6828 13.5424 39.8471 13.5442 39.9933 13.6054L48.3013 17.0917C48.4117 17.138 48.506 17.216 48.5723 17.3157C48.6386 17.4155 48.674 17.5326 48.674 17.6523V50.3607C48.674 50.5219 48.61 50.6766 48.4959 50.7907C48.3819 50.9047 48.2272 50.9688 48.0659 50.9688Z" fill="#212D55"/>
<path d="M39.7569 50.9688C39.5957 50.9688 39.441 50.9047 39.3269 50.7907C39.2129 50.6767 39.1488 50.522 39.1488 50.3607V14.1667C39.1488 14.0054 39.2129 13.8507 39.3269 13.7367C39.441 13.6227 39.5957 13.5586 39.7569 13.5586C39.9182 13.5586 40.0729 13.6227 40.1869 13.7367C40.301 13.8507 40.3651 14.0054 40.3651 14.1667V50.3607C40.3651 50.522 40.301 50.6767 40.1869 50.7907C40.0729 50.9047 39.9182 50.9688 39.7569 50.9688Z" fill="#212D55"/>
<path d="M57.883 50.9688C57.7218 50.9688 57.5671 50.9047 57.4531 50.7907C57.339 50.6766 57.2749 50.522 57.2749 50.3607V31.2478L51.3289 27.7883H48.0651C47.9039 27.7883 47.7492 27.7242 47.6351 27.6102C47.5211 27.4961 47.457 27.3415 47.457 27.1802C47.457 27.0189 47.5211 26.8642 47.6351 26.7502C47.7492 26.6362 47.9039 26.5721 48.0651 26.5721H51.493C51.5999 26.5725 51.7048 26.601 51.7971 26.6548L58.1877 30.3728C58.28 30.426 58.3566 30.5026 58.41 30.5948C58.4633 30.687 58.4915 30.7916 58.4918 30.8982V50.3576C58.4922 50.4378 58.4767 50.5172 58.4463 50.5914C58.4159 50.6656 58.3711 50.733 58.3145 50.7898C58.2579 50.8466 58.1907 50.8917 58.1167 50.9224C58.0426 50.9531 57.9632 50.9689 57.883 50.9688V50.9688Z" fill="#212D55"/>
<path d="M51.4948 50.9688C51.3335 50.9688 51.1789 50.9047 51.0648 50.7907C50.9508 50.6766 50.8867 50.522 50.8867 50.3607V27.1802C50.8867 27.0189 50.9508 26.8642 51.0648 26.7502C51.1789 26.6362 51.3335 26.5721 51.4948 26.5721C51.6561 26.5721 51.8108 26.6362 51.9248 26.7502C52.0389 26.8642 52.1029 27.0189 52.1029 27.1802V50.3607C52.1029 50.522 52.0389 50.6766 51.9248 50.7907C51.8108 50.9047 51.6561 50.9688 51.4948 50.9688Z" fill="#212D55"/>
<path d="M20.1784 50.9688C20.0171 50.9688 19.8625 50.9047 19.7484 50.7907C19.6344 50.6766 19.5703 50.522 19.5703 50.3607V31.4212C19.5703 31.2599 19.6344 31.1052 19.7484 30.9912C19.8625 30.8771 20.0171 30.813 20.1784 30.813H32.6696C32.8308 30.813 32.9855 30.8771 33.0996 30.9912C33.2136 31.1052 33.2777 31.2599 33.2777 31.4212C33.2777 31.5824 33.2136 31.7371 33.0996 31.8512C32.9855 31.9652 32.8308 32.0293 32.6696 32.0293H20.7865V50.3607C20.7865 50.522 20.7225 50.6766 20.6084 50.7907C20.4944 50.9047 20.3397 50.9688 20.1784 50.9688V50.9688Z" fill="#212D55"/>
<path d="M23.5288 34.365H22.2366C22.0753 34.365 21.9206 34.301 21.8066 34.1869C21.6925 34.0729 21.6285 33.9182 21.6285 33.7569C21.6285 33.5956 21.6925 33.441 21.8066 33.3269C21.9206 33.2129 22.0753 33.1488 22.2366 33.1488H23.5288C23.6901 33.1488 23.8448 33.2129 23.9588 33.3269C24.0729 33.441 24.1369 33.5956 24.1369 33.7569C24.1369 33.9182 24.0729 34.0729 23.9588 34.1869C23.8448 34.301 23.6901 34.365 23.5288 34.365Z" fill="#212D55"/>
<path d="M27.0729 34.365H25.7801C25.6188 34.365 25.4642 34.301 25.3501 34.1869C25.2361 34.0729 25.172 33.9182 25.172 33.7569C25.172 33.5956 25.2361 33.441 25.3501 33.3269C25.4642 33.2129 25.6188 33.1488 25.7801 33.1488H27.0729C27.2342 33.1488 27.3889 33.2129 27.5029 33.3269C27.617 33.441 27.6811 33.5956 27.6811 33.7569C27.6811 33.9182 27.617 34.0729 27.5029 34.1869C27.3889 34.301 27.2342 34.365 27.0729 34.365Z" fill="#212D55"/>
<path d="M30.6159 34.365H29.3236C29.1623 34.365 29.0077 34.301 28.8936 34.1869C28.7796 34.0729 28.7155 33.9182 28.7155 33.7569C28.7155 33.5956 28.7796 33.441 28.8936 33.3269C29.0077 33.2129 29.1623 33.1488 29.3236 33.1488H30.6159C30.7771 33.1488 30.9318 33.2129 31.0459 33.3269C31.1599 33.441 31.224 33.5956 31.224 33.7569C31.224 33.9182 31.1599 34.0729 31.0459 34.1869C30.9318 34.301 30.7771 34.365 30.6159 34.365Z" fill="#212D55"/>
<path d="M23.5288 37.2188H22.2366C22.0753 37.2188 21.9206 37.1548 21.8066 37.0407C21.6925 36.9267 21.6285 36.772 21.6285 36.6107C21.6285 36.4495 21.6925 36.2948 21.8066 36.1807C21.9206 36.0667 22.0753 36.0026 22.2366 36.0026H23.5288C23.6901 36.0026 23.8448 36.0667 23.9588 36.1807C24.0729 36.2948 24.1369 36.4495 24.1369 36.6107C24.1369 36.772 24.0729 36.9267 23.9588 37.0407C23.8448 37.1548 23.6901 37.2188 23.5288 37.2188Z" fill="#212D55"/>
<path d="M27.0729 37.2188H25.7801C25.6188 37.2188 25.4642 37.1548 25.3501 37.0407C25.2361 36.9267 25.172 36.772 25.172 36.6107C25.172 36.4495 25.2361 36.2948 25.3501 36.1807C25.4642 36.0667 25.6188 36.0026 25.7801 36.0026H27.0729C27.2342 36.0026 27.3889 36.0667 27.5029 36.1807C27.617 36.2948 27.6811 36.4495 27.6811 36.6107C27.6811 36.772 27.617 36.9267 27.5029 37.0407C27.3889 37.1548 27.2342 37.2188 27.0729 37.2188Z" fill="#212D55"/>
<path d="M30.6159 37.2188H29.3236C29.1623 37.2188 29.0077 37.1548 28.8936 37.0407C28.7796 36.9267 28.7155 36.772 28.7155 36.6107C28.7155 36.4495 28.7796 36.2948 28.8936 36.1807C29.0077 36.0667 29.1623 36.0026 29.3236 36.0026H30.6159C30.7771 36.0026 30.9318 36.0667 31.0459 36.1807C31.1599 36.2948 31.224 36.4495 31.224 36.6107C31.224 36.772 31.1599 36.9267 31.0459 37.0407C30.9318 37.1548 30.7771 37.2188 30.6159 37.2188Z" fill="#212D55"/>
<path d="M23.5288 40.0721H22.2366C22.0753 40.0721 21.9206 40.008 21.8066 39.894C21.6925 39.78 21.6285 39.6253 21.6285 39.464C21.6285 39.3027 21.6925 39.1481 21.8066 39.034C21.9206 38.92 22.0753 38.8559 22.2366 38.8559H23.5288C23.6901 38.8559 23.8448 38.92 23.9588 39.034C24.0729 39.1481 24.1369 39.3027 24.1369 39.464C24.1369 39.6253 24.0729 39.78 23.9588 39.894C23.8448 40.008 23.6901 40.0721 23.5288 40.0721Z" fill="#212D55"/>
<path d="M27.0729 40.0721H25.7801C25.6188 40.0721 25.4642 40.008 25.3501 39.894C25.2361 39.78 25.172 39.6253 25.172 39.464C25.172 39.3027 25.2361 39.1481 25.3501 39.034C25.4642 38.92 25.6188 38.8559 25.7801 38.8559H27.0729C27.2342 38.8559 27.3889 38.92 27.5029 39.034C27.617 39.1481 27.6811 39.3027 27.6811 39.464C27.6811 39.6253 27.617 39.78 27.5029 39.894C27.3889 40.008 27.2342 40.0721 27.0729 40.0721Z" fill="#212D55"/>
<path d="M30.6159 40.0721H29.3236C29.1623 40.0721 29.0077 40.008 28.8936 39.894C28.7796 39.78 28.7155 39.6253 28.7155 39.464C28.7155 39.3027 28.7796 39.1481 28.8936 39.034C29.0077 38.92 29.1623 38.8559 29.3236 38.8559H30.6159C30.7771 38.8559 30.9318 38.92 31.0459 39.034C31.1599 39.1481 31.224 39.3027 31.224 39.464C31.224 39.6253 31.1599 39.78 31.0459 39.894C30.9318 40.008 30.7771 40.0721 30.6159 40.0721Z" fill="#212D55"/>
<path d="M23.5288 42.9259H22.2366C22.0753 42.9259 21.9206 42.8619 21.8066 42.7478C21.6925 42.6338 21.6285 42.4791 21.6285 42.3178C21.6285 42.1565 21.6925 42.0019 21.8066 41.8878C21.9206 41.7738 22.0753 41.7097 22.2366 41.7097H23.5288C23.6901 41.7097 23.8448 41.7738 23.9588 41.8878C24.0729 42.0019 24.1369 42.1565 24.1369 42.3178C24.1369 42.4791 24.0729 42.6338 23.9588 42.7478C23.8448 42.8619 23.6901 42.9259 23.5288 42.9259Z" fill="#212D55"/>
<path d="M27.0729 42.9259H25.7801C25.6188 42.9259 25.4642 42.8619 25.3501 42.7478C25.2361 42.6338 25.172 42.4791 25.172 42.3178C25.172 42.1565 25.2361 42.0019 25.3501 41.8878C25.4642 41.7738 25.6188 41.7097 25.7801 41.7097H27.0729C27.2342 41.7097 27.3889 41.7738 27.5029 41.8878C27.617 42.0019 27.6811 42.1565 27.6811 42.3178C27.6811 42.4791 27.617 42.6338 27.5029 42.7478C27.3889 42.8619 27.2342 42.9259 27.0729 42.9259Z" fill="#212D55"/>
<path d="M30.6159 42.9259H29.3236C29.1623 42.9259 29.0077 42.8619 28.8936 42.7478C28.7796 42.6338 28.7155 42.4791 28.7155 42.3178C28.7155 42.1565 28.7796 42.0019 28.8936 41.8878C29.0077 41.7738 29.1623 41.7097 29.3236 41.7097H30.6159C30.7771 41.7097 30.9318 41.7738 31.0459 41.8878C31.1599 42.0019 31.224 42.1565 31.224 42.3178C31.224 42.4791 31.1599 42.6338 31.0459 42.7478C30.9318 42.8619 30.7771 42.9259 30.6159 42.9259Z" fill="#212D55"/>
<path d="M23.5288 45.7798H22.2366C22.0753 45.7798 21.9206 45.7157 21.8066 45.6017C21.6925 45.4877 21.6285 45.333 21.6285 45.1717C21.6285 45.0104 21.6925 44.8558 21.8066 44.7417C21.9206 44.6277 22.0753 44.5636 22.2366 44.5636H23.5288C23.6901 44.5636 23.8448 44.6277 23.9588 44.7417C24.0729 44.8558 24.1369 45.0104 24.1369 45.1717C24.1369 45.333 24.0729 45.4877 23.9588 45.6017C23.8448 45.7157 23.6901 45.7798 23.5288 45.7798Z" fill="#212D55"/>
<path d="M27.0729 45.7798H25.7801C25.6188 45.7798 25.4642 45.7157 25.3501 45.6017C25.2361 45.4877 25.172 45.333 25.172 45.1717C25.172 45.0104 25.2361 44.8558 25.3501 44.7417C25.4642 44.6277 25.6188 44.5636 25.7801 44.5636H27.0729C27.2342 44.5636 27.3889 44.6277 27.5029 44.7417C27.617 44.8558 27.6811 45.0104 27.6811 45.1717C27.6811 45.333 27.617 45.4877 27.5029 45.6017C27.3889 45.7157 27.2342 45.7798 27.0729 45.7798Z" fill="#212D55"/>
<path d="M30.6159 45.7798H29.3236C29.1623 45.7798 29.0077 45.7157 28.8936 45.6017C28.7796 45.4877 28.7155 45.333 28.7155 45.1717C28.7155 45.0104 28.7796 44.8558 28.8936 44.7417C29.0077 44.6277 29.1623 44.5636 29.3236 44.5636H30.6159C30.7771 44.5636 30.9318 44.6277 31.0459 44.7417C31.1599 44.8558 31.224 45.0104 31.224 45.1717C31.224 45.333 31.1599 45.4877 31.0459 45.6017C30.9318 45.7157 30.7771 45.7798 30.6159 45.7798Z" fill="#212D55"/>
<path d="M23.5288 48.6336H22.2366C22.0753 48.6336 21.9206 48.5696 21.8066 48.4555C21.6925 48.3415 21.6285 48.1868 21.6285 48.0255C21.6285 47.8642 21.6925 47.7096 21.8066 47.5955C21.9206 47.4815 22.0753 47.4174 22.2366 47.4174H23.5288C23.6901 47.4174 23.8448 47.4815 23.9588 47.5955C24.0729 47.7096 24.1369 47.8642 24.1369 48.0255C24.1369 48.1868 24.0729 48.3415 23.9588 48.4555C23.8448 48.5696 23.6901 48.6336 23.5288 48.6336Z" fill="#212D55"/>
<path d="M27.0729 48.6336H25.7801C25.6188 48.6336 25.4642 48.5696 25.3501 48.4555C25.2361 48.3415 25.172 48.1868 25.172 48.0255C25.172 47.8642 25.2361 47.7096 25.3501 47.5955C25.4642 47.4815 25.6188 47.4174 25.7801 47.4174H27.0729C27.2342 47.4174 27.3889 47.4815 27.5029 47.5955C27.617 47.7096 27.6811 47.8642 27.6811 48.0255C27.6811 48.1868 27.617 48.3415 27.5029 48.4555C27.3889 48.5696 27.2342 48.6336 27.0729 48.6336Z" fill="#212D55"/>
<path d="M30.6159 48.6336H29.3236C29.1623 48.6336 29.0077 48.5696 28.8936 48.4555C28.7796 48.3415 28.7155 48.1868 28.7155 48.0255C28.7155 47.8642 28.7796 47.7096 28.8936 47.5955C29.0077 47.4815 29.1623 47.4174 29.3236 47.4174H30.6159C30.7771 47.4174 30.9318 47.4815 31.0459 47.5955C31.1599 47.7096 31.224 47.8642 31.224 48.0255C31.224 48.1868 31.1599 48.3415 31.0459 48.4555C30.9318 48.5696 30.7771 48.6336 30.6159 48.6336Z" fill="#212D55"/>
<path d="M37.6159 20.1195C37.4546 20.1195 37.3 20.0554 37.1859 19.9413C37.0719 19.8273 37.0078 19.6726 37.0078 19.5113V18.3638C37.0078 18.2026 37.0719 18.0479 37.1859 17.9338C37.3 17.8198 37.4546 17.7557 37.6159 17.7557C37.7772 17.7557 37.9319 17.8198 38.0459 17.9338C38.16 18.0479 38.224 18.2026 38.224 18.3638V19.5113C38.224 19.6726 38.16 19.8273 38.0459 19.9413C37.9319 20.0554 37.7772 20.1195 37.6159 20.1195Z" fill="#212D55"/>
<path d="M34.8417 20.8267C34.6804 20.8267 34.5257 20.7626 34.4117 20.6486C34.2976 20.5345 34.2336 20.3798 34.2336 20.2186V19.0711C34.2336 18.9098 34.2976 18.7551 34.4117 18.6411C34.5257 18.527 34.6804 18.463 34.8417 18.463C35.0029 18.463 35.1576 18.527 35.2717 18.6411C35.3857 18.7551 35.4498 18.9098 35.4498 19.0711V20.2186C35.4498 20.3798 35.3857 20.5345 35.2717 20.6486C35.1576 20.7626 35.0029 20.8267 34.8417 20.8267Z" fill="#212D55"/>
<path d="M37.6159 24.6937C37.4546 24.6937 37.3 24.6296 37.1859 24.5156C37.0719 24.4015 37.0078 24.2468 37.0078 24.0856V22.9381C37.0078 22.7768 37.0719 22.6221 37.1859 22.5081C37.3 22.394 37.4546 22.33 37.6159 22.33C37.7772 22.33 37.9319 22.394 38.0459 22.5081C38.16 22.6221 38.224 22.7768 38.224 22.9381V24.0856C38.224 24.2468 38.16 24.4015 38.0459 24.5156C37.9319 24.6296 37.7772 24.6937 37.6159 24.6937Z" fill="#212D55"/>
<path d="M34.8417 25.4009C34.6804 25.4009 34.5257 25.3368 34.4117 25.2228C34.2976 25.1087 34.2336 24.9541 34.2336 24.7928V23.6453C34.2336 23.484 34.2976 23.3293 34.4117 23.2153C34.5257 23.1012 34.6804 23.0372 34.8417 23.0372C35.0029 23.0372 35.1576 23.1012 35.2717 23.2153C35.3857 23.3293 35.4498 23.484 35.4498 23.6453V24.7928C35.4498 24.9541 35.3857 25.1087 35.2717 25.2228C35.1576 25.3368 35.0029 25.4009 34.8417 25.4009Z" fill="#212D55"/>
<path d="M37.6159 29.2703C37.4546 29.2703 37.3 29.2062 37.1859 29.0921C37.0719 28.9781 37.0078 28.8234 37.0078 28.6622V27.5122C37.0078 27.3509 37.0719 27.1963 37.1859 27.0822C37.3 26.9682 37.4546 26.9041 37.6159 26.9041C37.7772 26.9041 37.9319 26.9682 38.0459 27.0822C38.16 27.1963 38.224 27.3509 38.224 27.5122V28.6622C38.224 28.8234 38.16 28.9781 38.0459 29.0921C37.9319 29.2062 37.7772 29.2703 37.6159 29.2703Z" fill="#212D55"/>
<path d="M34.8417 29.975C34.6804 29.975 34.5257 29.911 34.4117 29.7969C34.2976 29.6829 34.2336 29.5282 34.2336 29.3669V28.2194C34.2336 28.0582 34.2976 27.9035 34.4117 27.7894C34.5257 27.6754 34.6804 27.6113 34.8417 27.6113C35.0029 27.6113 35.1576 27.6754 35.2717 27.7894C35.3857 27.9035 35.4498 28.0582 35.4498 28.2194V29.3669C35.4498 29.5282 35.3857 29.6829 35.2717 29.7969C35.1576 29.911 35.0029 29.975 34.8417 29.975Z" fill="#212D55"/>
<path d="M37.6159 33.8414C37.4546 33.8414 37.3 33.7774 37.1859 33.6633C37.0719 33.5493 37.0078 33.3946 37.0078 33.2333V32.0858C37.0078 31.9246 37.0719 31.7699 37.1859 31.6558C37.3 31.5418 37.4546 31.4777 37.6159 31.4777C37.7772 31.4777 37.9319 31.5418 38.0459 31.6558C38.16 31.7699 38.224 31.9246 38.224 32.0858V33.2333C38.224 33.3946 38.16 33.5493 38.0459 33.6633C37.9319 33.7774 37.7772 33.8414 37.6159 33.8414Z" fill="#212D55"/>
<path d="M34.8417 34.5486C34.6804 34.5486 34.5257 34.4846 34.4117 34.3705C34.2976 34.2565 34.2336 34.1018 34.2336 33.9405V32.793C34.2336 32.6318 34.2976 32.4771 34.4117 32.363C34.5257 32.249 34.6804 32.1849 34.8417 32.1849C35.0029 32.1849 35.1576 32.249 35.2717 32.363C35.3857 32.4771 35.4498 32.6318 35.4498 32.793V33.9405C35.4498 34.1018 35.3857 34.2565 35.2717 34.3705C35.1576 34.4846 35.0029 34.5486 34.8417 34.5486Z" fill="#212D55"/>
<path d="M37.6159 38.4156C37.4546 38.4156 37.3 38.3515 37.1859 38.2375C37.0719 38.1234 37.0078 37.9688 37.0078 37.8075V36.66C37.0078 36.4987 37.0719 36.344 37.1859 36.23C37.3 36.116 37.4546 36.0519 37.6159 36.0519C37.7772 36.0519 37.9319 36.116 38.0459 36.23C38.16 36.344 38.224 36.4987 38.224 36.66V37.8075C38.224 37.9688 38.16 38.1234 38.0459 38.2375C37.9319 38.3515 37.7772 38.4156 37.6159 38.4156Z" fill="#212D55"/>
<path d="M34.8417 39.1217C34.6804 39.1217 34.5257 39.0576 34.4117 38.9435C34.2976 38.8295 34.2336 38.6748 34.2336 38.5135V37.3673C34.2336 37.206 34.2976 37.0513 34.4117 36.9373C34.5257 36.8232 34.6804 36.7592 34.8417 36.7592C35.0029 36.7592 35.1576 36.8232 35.2717 36.9373C35.3857 37.0513 35.4498 37.206 35.4498 37.3673V38.5135C35.4498 38.6748 35.3857 38.8295 35.2717 38.9435C35.1576 39.0576 35.0029 39.1217 34.8417 39.1217Z" fill="#212D55"/>
<path d="M37.6159 42.9898C37.4546 42.9898 37.3 42.9257 37.1859 42.8117C37.0719 42.6977 37.0078 42.543 37.0078 42.3817V41.2342C37.0078 41.0729 37.0719 40.9183 37.1859 40.8042C37.3 40.6902 37.4546 40.6261 37.6159 40.6261C37.7772 40.6261 37.9319 40.6902 38.0459 40.8042C38.16 40.9183 38.224 41.0729 38.224 41.2342V42.3817C38.224 42.543 38.16 42.6977 38.0459 42.8117C37.9319 42.9257 37.7772 42.9898 37.6159 42.9898Z" fill="#212D55"/>
<path d="M34.8417 43.697C34.6804 43.697 34.5257 43.633 34.4117 43.5189C34.2976 43.4049 34.2336 43.2502 34.2336 43.0889V41.9414C34.2336 41.7801 34.2976 41.6255 34.4117 41.5114C34.5257 41.3974 34.6804 41.3333 34.8417 41.3333C35.0029 41.3333 35.1576 41.3974 35.2717 41.5114C35.3857 41.6255 35.4498 41.7801 35.4498 41.9414V43.0889C35.4498 43.2502 35.3857 43.4049 35.2717 43.5189C35.1576 43.633 35.0029 43.697 34.8417 43.697Z" fill="#212D55"/>
<path d="M37.6159 47.5634C37.4546 47.5634 37.3 47.4993 37.1859 47.3853C37.0719 47.2712 37.0078 47.1165 37.0078 46.9553V45.8108C37.0078 45.6495 37.0719 45.4949 37.1859 45.3808C37.3 45.2668 37.4546 45.2027 37.6159 45.2027C37.7772 45.2027 37.9319 45.2668 38.0459 45.3808C38.16 45.4949 38.224 45.6495 38.224 45.8108V46.9583C38.2232 47.1191 38.1588 47.273 38.0448 47.3863C37.9309 47.4997 37.7767 47.5634 37.6159 47.5634Z" fill="#212D55"/>
<path d="M34.8417 48.2713C34.6804 48.2713 34.5257 48.2072 34.4117 48.0931C34.2976 47.9791 34.2336 47.8244 34.2336 47.6631V46.515C34.2336 46.3538 34.2976 46.1991 34.4117 46.085C34.5257 45.971 34.6804 45.9069 34.8417 45.9069C35.0029 45.9069 35.1576 45.971 35.2717 46.085C35.3857 46.1991 35.4498 46.3538 35.4498 46.515V47.6625C35.4498 47.7424 35.4342 47.8216 35.4037 47.8954C35.3731 47.9693 35.3283 48.0364 35.2719 48.0929C35.2154 48.1495 35.1483 48.1943 35.0745 48.2249C35.0007 48.2555 34.9216 48.2713 34.8417 48.2713V48.2713Z" fill="#212D55"/>
<path d="M41.8121 19.5405C41.6508 19.5405 41.4961 19.4765 41.3821 19.3624C41.268 19.2484 41.204 19.0937 41.204 18.9324V17.7861C41.204 17.6249 41.268 17.4702 41.3821 17.3561C41.4961 17.2421 41.6508 17.178 41.8121 17.178C41.9734 17.178 42.128 17.2421 42.2421 17.3561C42.3561 17.4702 42.4202 17.6249 42.4202 17.7861V18.9324C42.4202 19.0937 42.3561 19.2484 42.2421 19.3624C42.128 19.4765 41.9734 19.5405 41.8121 19.5405Z" fill="#212D55"/>
<path d="M43.8649 20.3159C43.7037 20.3159 43.549 20.2518 43.4349 20.1378C43.3209 20.0237 43.2568 19.869 43.2568 19.7078V18.5609C43.2568 18.3996 43.3209 18.2449 43.4349 18.1309C43.549 18.0168 43.7037 17.9528 43.8649 17.9528C44.0262 17.9528 44.1809 18.0168 44.2949 18.1309C44.409 18.2449 44.4731 18.3996 44.4731 18.5609V19.7084C44.4729 19.8695 44.4088 20.0241 44.2947 20.138C44.1807 20.2519 44.0261 20.3159 43.8649 20.3159V20.3159Z" fill="#212D55"/>
<path d="M45.9168 21.0906C45.7555 21.0906 45.6009 21.0265 45.4868 20.9125C45.3728 20.7984 45.3087 20.6438 45.3087 20.4825V19.3356C45.3087 19.1743 45.3728 19.0196 45.4868 18.9056C45.6009 18.7915 45.7555 18.7275 45.9168 18.7275C46.0781 18.7275 46.2328 18.7915 46.3468 18.9056C46.4609 19.0196 46.5249 19.1743 46.5249 19.3356V20.4831C46.5248 20.6443 46.4606 20.7988 46.3466 20.9127C46.2326 21.0266 46.078 21.0906 45.9168 21.0906V21.0906Z" fill="#212D55"/>
<path d="M41.8121 24.1013C41.6508 24.1013 41.4961 24.0373 41.3821 23.9232C41.268 23.8092 41.204 23.6545 41.204 23.4932V22.3439C41.204 22.1826 41.268 22.0279 41.3821 21.9139C41.4961 21.7998 41.6508 21.7358 41.8121 21.7358C41.9734 21.7358 42.128 21.7998 42.2421 21.9139C42.3561 22.0279 42.4202 22.1826 42.4202 22.3439V23.4932C42.4202 23.6545 42.3561 23.8092 42.2421 23.9232C42.128 24.0373 41.9734 24.1013 41.8121 24.1013Z" fill="#212D55"/>
<path d="M43.8649 24.8736C43.7037 24.8736 43.549 24.8095 43.4349 24.6955C43.3209 24.5815 43.2568 24.4268 43.2568 24.2655V23.1186C43.2568 22.9573 43.3209 22.8027 43.4349 22.6886C43.549 22.5746 43.7037 22.5105 43.8649 22.5105C44.0262 22.5105 44.1809 22.5746 44.2949 22.6886C44.409 22.8027 44.4731 22.9573 44.4731 23.1186V24.2655C44.4731 24.4268 44.409 24.5815 44.2949 24.6955C44.1809 24.8095 44.0262 24.8736 43.8649 24.8736Z" fill="#212D55"/>
<path d="M45.9168 25.6484C45.7555 25.6484 45.6009 25.5843 45.4868 25.4703C45.3728 25.3562 45.3087 25.2016 45.3087 25.0403V23.8934C45.3087 23.7321 45.3728 23.5774 45.4868 23.4634C45.6009 23.3493 45.7555 23.2853 45.9168 23.2853C46.0781 23.2853 46.2328 23.3493 46.3468 23.4634C46.4609 23.5774 46.5249 23.7321 46.5249 23.8934V25.0409C46.5248 25.2021 46.4606 25.3566 46.3466 25.4705C46.2326 25.5844 46.078 25.6484 45.9168 25.6484Z" fill="#212D55"/>
<path d="M41.8121 28.6573C41.6508 28.6573 41.4961 28.5932 41.3821 28.4792C41.268 28.3651 41.204 28.2105 41.204 28.0492V26.8986C41.204 26.7374 41.268 26.5827 41.3821 26.4686C41.4961 26.3546 41.6508 26.2905 41.8121 26.2905C41.9734 26.2905 42.128 26.3546 42.2421 26.4686C42.3561 26.5827 42.4202 26.7374 42.4202 26.8986V28.0461C42.4206 28.1262 42.4052 28.2056 42.3748 28.2798C42.3444 28.3539 42.2997 28.4213 42.2432 28.4781C42.1867 28.5349 42.1195 28.58 42.0455 28.6107C41.9715 28.6415 41.8922 28.6573 41.8121 28.6573V28.6573Z" fill="#212D55"/>
<path d="M43.8649 29.4321C43.7037 29.4321 43.549 29.368 43.4349 29.254C43.3209 29.1399 43.2568 28.9852 43.2568 28.824V27.6765C43.2568 27.5152 43.3209 27.3605 43.4349 27.2465C43.549 27.1324 43.7037 27.0684 43.8649 27.0684C44.0262 27.0684 44.1809 27.1324 44.2949 27.2465C44.409 27.3605 44.4731 27.5152 44.4731 27.6765V28.824C44.4731 28.9852 44.409 29.1399 44.2949 29.254C44.1809 29.368 44.0262 29.4321 43.8649 29.4321Z" fill="#212D55"/>
<path d="M45.9168 30.2061C45.7555 30.2061 45.6009 30.1421 45.4868 30.028C45.3728 29.914 45.3087 29.7593 45.3087 29.598V28.4511C45.3087 28.2898 45.3728 28.1352 45.4868 28.0211C45.6009 27.9071 45.7555 27.843 45.9168 27.843C46.0781 27.843 46.2328 27.9071 46.3468 28.0211C46.4609 28.1352 46.5249 28.2898 46.5249 28.4511V29.5986C46.5248 29.7598 46.4606 29.9143 46.3466 30.0282C46.2326 30.1421 46.078 30.2061 45.9168 30.2061Z" fill="#212D55"/>
<path d="M41.8121 33.2151C41.6508 33.2151 41.4961 33.151 41.3821 33.037C41.268 32.9229 41.204 32.7683 41.204 32.607V31.4595C41.204 31.2982 41.268 31.1435 41.3821 31.0295C41.4961 30.9154 41.6508 30.8514 41.8121 30.8514C41.9734 30.8514 42.128 30.9154 42.2421 31.0295C42.3561 31.1435 42.4202 31.2982 42.4202 31.4595V32.607C42.4202 32.7683 42.3561 32.9229 42.2421 33.037C42.128 33.151 41.9734 33.2151 41.8121 33.2151Z" fill="#212D55"/>
<path d="M43.8649 33.9898C43.7037 33.9898 43.549 33.9258 43.4349 33.8117C43.3209 33.6977 43.2568 33.543 43.2568 33.3817V32.2342C43.2568 32.0729 43.3209 31.9183 43.4349 31.8042C43.549 31.6902 43.7037 31.6261 43.8649 31.6261C44.0262 31.6261 44.1809 31.6902 44.2949 31.8042C44.409 31.9183 44.4731 32.0729 44.4731 32.2342V33.3817C44.4731 33.543 44.409 33.6977 44.2949 33.8117C44.1809 33.9258 44.0262 33.9898 43.8649 33.9898Z" fill="#212D55"/>
<path d="M45.9168 34.7645C45.7555 34.7645 45.6009 34.7005 45.4868 34.5864C45.3728 34.4724 45.3087 34.3177 45.3087 34.1564V33.0089C45.3087 32.8476 45.3728 32.693 45.4868 32.5789C45.6009 32.4649 45.7555 32.4008 45.9168 32.4008C46.0781 32.4008 46.2328 32.4649 46.3468 32.5789C46.4609 32.693 46.5249 32.8476 46.5249 33.0089V34.1564C46.5249 34.3177 46.4609 34.4724 46.3468 34.5864C46.2328 34.7005 46.0781 34.7645 45.9168 34.7645Z" fill="#212D55"/>
<path d="M41.8121 37.7728C41.6508 37.7728 41.4961 37.7087 41.3821 37.5947C41.268 37.4806 41.204 37.326 41.204 37.1647V36.0202C41.204 35.8589 41.268 35.7043 41.3821 35.5902C41.4961 35.4762 41.6508 35.4121 41.8121 35.4121C41.9734 35.4121 42.128 35.4762 42.2421 35.5902C42.3561 35.7043 42.4202 35.8589 42.4202 36.0202V37.1677C42.4194 37.3285 42.355 37.4824 42.241 37.5957C42.1271 37.7091 41.9728 37.7728 41.8121 37.7728V37.7728Z" fill="#212D55"/>
<path d="M43.8649 38.5475C43.7037 38.5475 43.549 38.4835 43.4349 38.3694C43.3209 38.2554 43.2568 38.1007 43.2568 37.9394V36.7919C43.2568 36.6307 43.3209 36.476 43.4349 36.3619C43.549 36.2479 43.7037 36.1838 43.8649 36.1838C44.0262 36.1838 44.1809 36.2479 44.2949 36.3619C44.409 36.476 44.4731 36.6307 44.4731 36.7919V37.9394C44.4731 38.1007 44.409 38.2554 44.2949 38.3694C44.1809 38.4835 44.0262 38.5475 43.8649 38.5475Z" fill="#212D55"/>
<path d="M45.9168 39.3223C45.7555 39.3223 45.6009 39.2582 45.4868 39.1442C45.3728 39.0301 45.3087 38.8754 45.3087 38.7142V37.5667C45.3087 37.4054 45.3728 37.2507 45.4868 37.1367C45.6009 37.0226 45.7555 36.9586 45.9168 36.9586C46.0781 36.9586 46.2328 37.0226 46.3468 37.1367C46.4609 37.2507 46.5249 37.4054 46.5249 37.5667V38.7142C46.5249 38.8754 46.4609 39.0301 46.3468 39.1442C46.2328 39.2582 46.0781 39.3223 45.9168 39.3223Z" fill="#212D55"/>
<path d="M41.8121 42.3306C41.6508 42.3306 41.4961 42.2666 41.3821 42.1525C41.268 42.0385 41.204 41.8838 41.204 41.7225V40.575C41.204 40.4137 41.268 40.2591 41.3821 40.145C41.4961 40.031 41.6508 39.9669 41.8121 39.9669C41.9734 39.9669 42.128 40.031 42.2421 40.145C42.3561 40.2591 42.4202 40.4137 42.4202 40.575V41.7225C42.4202 41.8838 42.3561 42.0385 42.2421 42.1525C42.128 42.2666 41.9734 42.3306 41.8121 42.3306Z" fill="#212D55"/>
<path d="M43.8649 43.1054C43.7037 43.1054 43.549 43.0413 43.4349 42.9272C43.3209 42.8132 43.2568 42.6585 43.2568 42.4972V41.3497C43.2568 41.1885 43.3209 41.0338 43.4349 40.9197C43.549 40.8057 43.7037 40.7416 43.8649 40.7416C44.0262 40.7416 44.1809 40.8057 44.2949 40.9197C44.409 41.0338 44.4731 41.1885 44.4731 41.3497V42.4972C44.4731 42.6585 44.409 42.8132 44.2949 42.9272C44.1809 43.0413 44.0262 43.1054 43.8649 43.1054Z" fill="#212D55"/>
<path d="M45.9168 43.8801C45.7555 43.8801 45.6009 43.816 45.4868 43.702C45.3728 43.5879 45.3087 43.4332 45.3087 43.272V42.1245C45.3087 41.9632 45.3728 41.8085 45.4868 41.6945C45.6009 41.5804 45.7555 41.5164 45.9168 41.5164C46.0781 41.5164 46.2328 41.5804 46.3468 41.6945C46.4609 41.8085 46.5249 41.9632 46.5249 42.1245V43.272C46.5249 43.4332 46.4609 43.5879 46.3468 43.702C46.2328 43.816 46.0781 43.8801 45.9168 43.8801Z" fill="#212D55"/>
<path d="M41.8121 46.8884C41.6508 46.8884 41.4961 46.8243 41.3821 46.7103C41.268 46.5962 41.204 46.4415 41.204 46.2803V45.1328C41.204 44.9715 41.268 44.8168 41.3821 44.7028C41.4961 44.5887 41.6508 44.5247 41.8121 44.5247C41.9734 44.5247 42.128 44.5887 42.2421 44.7028C42.3561 44.8168 42.4202 44.9715 42.4202 45.1328V46.2803C42.4202 46.4415 42.3561 46.5962 42.2421 46.7103C42.128 46.8243 41.9734 46.8884 41.8121 46.8884Z" fill="#212D55"/>
<path d="M43.8649 47.6631C43.7037 47.6631 43.549 47.599 43.4349 47.485C43.3209 47.3709 43.2568 47.2163 43.2568 47.055V45.9075C43.2568 45.7462 43.3209 45.5915 43.4349 45.4775C43.549 45.3634 43.7037 45.2994 43.8649 45.2994C44.0262 45.2994 44.1809 45.3634 44.2949 45.4775C44.409 45.5915 44.4731 45.7462 44.4731 45.9075V47.055C44.4731 47.2163 44.409 47.3709 44.2949 47.485C44.1809 47.599 44.0262 47.6631 43.8649 47.6631Z" fill="#212D55"/>
<path d="M45.9168 48.4378C45.7555 48.4378 45.6009 48.3737 45.4868 48.2597C45.3728 48.1457 45.3087 47.991 45.3087 47.8297V46.6822C45.3087 46.5209 45.3728 46.3662 45.4868 46.2522C45.6009 46.1382 45.7555 46.0741 45.9168 46.0741C46.0781 46.0741 46.2328 46.1382 46.3468 46.2522C46.4609 46.3662 46.5249 46.5209 46.5249 46.6822V47.8297C46.5249 47.991 46.4609 48.1457 46.3468 48.2597C46.2328 48.3737 46.0781 48.4378 45.9168 48.4378Z" fill="#212D55"/>
<path d="M53.6076 32.4629C53.4464 32.4629 53.2917 32.3988 53.1777 32.2847C53.0636 32.1707 52.9995 32.016 52.9995 31.8547V31.2399C52.9995 31.0787 53.0636 30.924 53.1777 30.8099C53.2917 30.6959 53.4464 30.6318 53.6076 30.6318C53.7689 30.6318 53.9236 30.6959 54.0376 30.8099C54.1517 30.924 54.2158 31.0787 54.2158 31.2399V31.8547C54.2158 32.016 54.1517 32.1707 54.0376 32.2847C53.9236 32.3988 53.7689 32.4629 53.6076 32.4629Z" fill="#212D55"/>
<path d="M55.6589 33.7508C55.4976 33.7508 55.3429 33.6867 55.2289 33.5727C55.1148 33.4587 55.0508 33.304 55.0508 33.1427V32.5279C55.0508 32.3666 55.1148 32.212 55.2289 32.0979C55.3429 31.9839 55.4976 31.9198 55.6589 31.9198C55.8202 31.9198 55.9748 31.9839 56.0889 32.0979C56.2029 32.212 56.267 32.3666 56.267 32.5279V33.1427C56.267 33.304 56.2029 33.4587 56.0889 33.5727C55.9748 33.6867 55.8202 33.7508 55.6589 33.7508V33.7508Z" fill="#212D55"/>
<path d="M53.6076 35.4657C53.4464 35.4657 53.2917 35.4017 53.1777 35.2876C53.0636 35.1736 52.9995 35.0189 52.9995 34.8576V34.2434C52.9995 34.0821 53.0636 33.9275 53.1777 33.8134C53.2917 33.6994 53.4464 33.6353 53.6076 33.6353C53.7689 33.6353 53.9236 33.6994 54.0376 33.8134C54.1517 33.9275 54.2158 34.0821 54.2158 34.2434V34.8582C54.2156 35.0194 54.1515 35.1739 54.0374 35.2878C53.9234 35.4017 53.7688 35.4657 53.6076 35.4657V35.4657Z" fill="#212D55"/>
<path d="M55.6589 36.7536C55.4976 36.7536 55.3429 36.6896 55.2289 36.5755C55.1148 36.4615 55.0508 36.3068 55.0508 36.1455V35.5338C55.0508 35.3725 55.1148 35.2178 55.2289 35.1038C55.3429 34.9897 55.4976 34.9257 55.6589 34.9257C55.8202 34.9257 55.9748 34.9897 56.0889 35.1038C56.2029 35.2178 56.267 35.3725 56.267 35.5338V36.1486C56.2662 36.3093 56.2018 36.4632 56.0878 36.5766C55.9739 36.69 55.8196 36.7536 55.6589 36.7536V36.7536Z" fill="#212D55"/>
<path d="M53.6076 38.4691C53.4464 38.4691 53.2917 38.4051 53.1777 38.291C53.0636 38.177 52.9995 38.0223 52.9995 37.861V37.2462C52.9995 37.0849 53.0636 36.9303 53.1777 36.8162C53.2917 36.7022 53.4464 36.6381 53.6076 36.6381C53.7689 36.6381 53.9236 36.7022 54.0376 36.8162C54.1517 36.9303 54.2158 37.0849 54.2158 37.2462V37.861C54.2158 38.0223 54.1517 38.177 54.0376 38.291C53.9236 38.4051 53.7689 38.4691 53.6076 38.4691Z" fill="#212D55"/>
<path d="M55.6589 39.7571C55.4976 39.7571 55.3429 39.693 55.2289 39.579C55.1148 39.4649 55.0508 39.3103 55.0508 39.149V38.5342C55.0508 38.3729 55.1148 38.2182 55.2289 38.1042C55.3429 37.9902 55.4976 37.9261 55.6589 37.9261C55.8202 37.9261 55.9748 37.9902 56.0889 38.1042C56.2029 38.2182 56.267 38.3729 56.267 38.5342V39.149C56.267 39.3103 56.2029 39.4649 56.0889 39.579C55.9748 39.693 55.8202 39.7571 55.6589 39.7571V39.7571Z" fill="#212D55"/>
<path d="M53.6076 41.4725C53.4464 41.4725 53.2917 41.4085 53.1777 41.2944C53.0636 41.1804 52.9995 41.0257 52.9995 40.8644V40.2496C52.9995 40.0884 53.0636 39.9337 53.1777 39.8197C53.2917 39.7056 53.4464 39.6415 53.6076 39.6415C53.7689 39.6415 53.9236 39.7056 54.0376 39.8197C54.1517 39.9337 54.2158 40.0884 54.2158 40.2496V40.8644C54.2158 41.0257 54.1517 41.1804 54.0376 41.2944C53.9236 41.4085 53.7689 41.4725 53.6076 41.4725Z" fill="#212D55"/>
<path d="M55.6589 42.7599C55.4976 42.7599 55.3429 42.6958 55.2289 42.5818C55.1148 42.4678 55.0508 42.3131 55.0508 42.1518V41.537C55.0508 41.3757 55.1148 41.221 55.2289 41.107C55.3429 40.993 55.4976 40.9289 55.6589 40.9289C55.8202 40.9289 55.9748 40.993 56.0889 41.107C56.2029 41.221 56.267 41.3757 56.267 41.537V42.1518C56.267 42.3131 56.2029 42.4678 56.0889 42.5818C55.9748 42.6958 55.8202 42.7599 55.6589 42.7599V42.7599Z" fill="#212D55"/>
<path d="M53.6076 44.473C53.4464 44.473 53.2917 44.4089 53.1777 44.2949C53.0636 44.1808 52.9995 44.0262 52.9995 43.8649V43.2525C52.9995 43.0912 53.0636 42.9366 53.1777 42.8225C53.2917 42.7085 53.4464 42.6444 53.6076 42.6444C53.7689 42.6444 53.9236 42.7085 54.0376 42.8225C54.1517 42.9366 54.2158 43.0912 54.2158 43.2525V43.8649C54.2158 44.0262 54.1517 44.1808 54.0376 44.2949C53.9236 44.4089 53.7689 44.473 53.6076 44.473Z" fill="#212D55"/>
<path d="M55.6589 45.7634C55.4976 45.7634 55.3429 45.6993 55.2289 45.5853C55.1148 45.4712 55.0508 45.3166 55.0508 45.1553V44.5405C55.0508 44.3792 55.1148 44.2245 55.2289 44.1105C55.3429 43.9964 55.4976 43.9324 55.6589 43.9324C55.8202 43.9324 55.9748 43.9964 56.0889 44.1105C56.2029 44.2245 56.267 44.3792 56.267 44.5405V45.1553C56.267 45.3166 56.2029 45.4712 56.0889 45.5853C55.9748 45.6993 55.8202 45.7634 55.6589 45.7634V45.7634Z" fill="#212D55"/>
<path d="M53.6076 47.4788C53.4464 47.4788 53.2917 47.4148 53.1777 47.3007C53.0636 47.1867 52.9995 47.032 52.9995 46.8707V46.2559C52.9995 46.0947 53.0636 45.94 53.1777 45.8259C53.2917 45.7119 53.4464 45.6478 53.6076 45.6478C53.7689 45.6478 53.9236 45.7119 54.0376 45.8259C54.1517 45.94 54.2158 46.0947 54.2158 46.2559V46.8707C54.2158 47.032 54.1517 47.1867 54.0376 47.3007C53.9236 47.4148 53.7689 47.4788 53.6076 47.4788Z" fill="#212D55"/>
<path d="M55.6589 48.7662C55.4976 48.7662 55.3429 48.7022 55.2289 48.5881C55.1148 48.4741 55.0508 48.3194 55.0508 48.1581V47.5433C55.0508 47.3821 55.1148 47.2274 55.2289 47.1134C55.3429 46.9993 55.4976 46.9352 55.6589 46.9352C55.8202 46.9352 55.9748 46.9993 56.0889 47.1134C56.2029 47.2274 56.267 47.3821 56.267 47.5433V48.1581C56.267 48.3194 56.2029 48.4741 56.0889 48.5881C55.9748 48.7022 55.8202 48.7662 55.6589 48.7662V48.7662Z" fill="#212D55"/>
<path d="M59.7095 50.959H18.3581C18.1968 50.959 18.0422 50.8949 17.9281 50.7809C17.8141 50.6669 17.75 50.5122 17.75 50.3509C17.75 50.1896 17.8141 50.035 17.9281 49.9209C18.0422 49.8069 18.1968 49.7428 18.3581 49.7428H59.7095C59.8707 49.7428 60.0254 49.8069 60.1395 49.9209C60.2535 50.035 60.3176 50.1896 60.3176 50.3509C60.3176 50.5122 60.2535 50.6669 60.1395 50.7809C60.0254 50.8949 59.8707 50.959 59.7095 50.959Z" fill="#212D55"/>
</svg>
