<svg width="80" height="69" viewBox="0 0 80 69" fill="none" xmlns="http://www.w3.org/2000/svg">
<path fill-rule="evenodd" clip-rule="evenodd" d="M10 0C4.47715 0 0 4.47715 0 10V27.3892C2.50902 27.7842 4.46062 30.8171 4.46062 34.5C4.46062 38.1829 2.50902 41.2159 0 41.6109V59C0 64.5229 4.47715 69 10 69H70C75.5229 69 80 64.5228 80 59V10C80 4.47715 75.5229 0 70 0H10Z" fill="white"/>
<path d="M46.0421 55.7838C45.9589 55.7839 45.8766 55.7668 45.8002 55.7338C45.7239 55.7007 45.6551 55.6524 45.5982 55.5917L42.6793 52.4788C42.5735 52.3661 42.5146 52.2174 42.5145 52.0628V50.5869C42.5145 50.4989 42.5337 50.4119 42.5707 50.332C42.6076 50.2521 42.6615 50.1812 42.7285 50.1242L43.7623 49.2412L42.8106 48.2311C42.7065 48.1207 42.6474 47.9752 42.6451 47.8234C42.6427 47.6716 42.6972 47.5244 42.7979 47.4108L43.7994 46.2791L42.9547 45.37C42.853 45.2606 42.795 45.1175 42.792 44.9681C42.789 44.8187 42.8411 44.6734 42.9383 44.56L43.8402 43.5086L42.7352 42.5964C42.666 42.5393 42.6102 42.4676 42.5719 42.3865C42.5337 42.3053 42.5138 42.2167 42.5139 42.1269V38.4728C40.9768 37.6909 39.75 36.4113 39.0335 34.8427C38.317 33.2741 38.153 31.5091 38.5683 29.8353C38.9837 28.1616 39.9538 26.6779 41.3205 25.6263C42.6872 24.5746 44.3699 24.017 46.0942 24.0444C47.8185 24.0718 49.4827 24.6825 50.8153 25.7771C52.1479 26.8716 53.0705 28.3853 53.4324 30.0714C53.7944 31.7575 53.5745 33.5164 52.8085 35.0615C52.0425 36.6066 50.7757 37.8465 49.2146 38.5792V51.9157C49.2146 52.052 49.1687 52.1843 49.0845 52.2915L46.5201 55.5515C46.4658 55.6208 46.3971 55.6774 46.3188 55.7175C46.2404 55.7576 46.1544 55.7802 46.0664 55.7838H46.0421ZM43.7313 51.822L46.0026 54.2435L47.9996 51.7052V38.1809C47.9996 38.0599 48.0357 37.9415 48.1033 37.8411C48.1709 37.7407 48.2669 37.6627 48.3791 37.6172C49.7529 37.0625 50.8926 36.05 51.6053 34.7511C52.318 33.4523 52.5598 31.947 52.2896 30.4903C52.0195 29.0336 51.254 27.7151 50.123 26.7582C48.992 25.8012 47.5649 25.2647 46.0836 25.2396C44.6023 25.2144 43.1578 25.7021 41.9949 26.6201C40.832 27.538 40.0222 28.8297 39.7027 30.2764C39.3832 31.7231 39.5737 33.2357 40.2418 34.5581C40.91 35.8804 42.0147 36.9311 43.3689 37.5321C43.4771 37.5793 43.5692 37.657 43.634 37.7557C43.6988 37.8544 43.7334 37.9698 43.7337 38.0879V41.8417L45.0935 42.9649C45.1558 43.0163 45.2073 43.0797 45.2448 43.1512C45.2824 43.2228 45.3053 43.3011 45.3123 43.3816C45.3193 43.4621 45.3101 43.5432 45.2854 43.6201C45.2607 43.697 45.2208 43.7683 45.1683 43.8296L44.2166 44.9394L45.0679 45.8552C45.1707 45.9658 45.2287 46.1106 45.2306 46.2616C45.2325 46.4125 45.1782 46.5588 45.0783 46.6719L44.0791 47.8012L45.0886 48.8727C45.145 48.9327 45.1886 49.0035 45.2168 49.0809C45.245 49.1582 45.2572 49.2405 45.2527 49.3228C45.2481 49.405 45.2269 49.4854 45.1904 49.5592C45.1538 49.633 45.1026 49.6986 45.0399 49.752L43.7325 50.8679L43.7313 51.822Z" fill="#212D55"/>
<path d="M48.6042 38.7854C48.4436 38.7854 48.2894 38.7218 48.1755 38.6085C48.0616 38.4953 47.9971 38.3416 47.9961 38.1809V38.1736C47.9968 38.0535 48.0331 37.9363 48.1003 37.8368C48.1676 37.7372 48.2628 37.6599 48.374 37.6144C48.4852 37.5689 48.6073 37.5574 48.7251 37.5813C48.8428 37.6052 48.9508 37.6634 49.0355 37.7486C49.1202 37.8337 49.1777 37.9421 49.2009 38.06C49.2241 38.1778 49.2118 38.2999 49.1657 38.4108C49.1195 38.5217 49.0416 38.6165 48.9417 38.6831C48.8417 38.7498 48.7243 38.7854 48.6042 38.7854Z" fill="#212D55"/>
<path d="M45.9694 32.8028C45.3813 32.8028 44.8064 32.6284 44.3174 32.3016C43.8284 31.9749 43.4472 31.5104 43.2221 30.9671C42.9971 30.4237 42.9382 29.8258 43.0529 29.249C43.1677 28.6722 43.4509 28.1423 43.8668 27.7264C44.2826 27.3106 44.8125 27.0273 45.3893 26.9126C45.9661 26.7979 46.564 26.8568 47.1074 27.0818C47.6508 27.3069 48.1152 27.688 48.4419 28.177C48.7687 28.6661 48.9431 29.241 48.9431 29.8291C48.9423 30.6175 48.6287 31.3734 48.0712 31.9309C47.5137 32.4884 46.7578 32.802 45.9694 32.8028V32.8028ZM45.9694 28.0717C45.6218 28.0717 45.2821 28.1748 44.9931 28.3679C44.7041 28.561 44.4788 28.8354 44.3458 29.1566C44.2128 29.4777 44.178 29.8311 44.2458 30.172C44.3136 30.5129 44.481 30.826 44.7267 31.0718C44.9725 31.3176 45.2857 31.485 45.6266 31.5528C45.9675 31.6206 46.3208 31.5858 46.642 31.4528C46.9631 31.3198 47.2376 31.0945 47.4307 30.8055C47.6238 30.5165 47.7269 30.1767 47.7269 29.8291C47.7264 29.3632 47.5411 28.9164 47.2116 28.587C46.8821 28.2575 46.4354 28.0722 45.9694 28.0717Z" fill="#212D55"/>
<path d="M26.9068 51.9831C26.7678 51.9832 26.633 51.9357 26.5248 51.8485C26.4166 51.7613 26.3415 51.6397 26.3121 51.5039L25.4084 47.3311C25.3754 47.1793 25.4018 47.0207 25.482 46.8877L26.247 45.6211C26.2925 45.5457 26.3537 45.4811 26.4266 45.4318C26.4995 45.3825 26.5822 45.3495 26.669 45.3352L28.0068 45.1145L27.7156 43.7529C27.6839 43.605 27.7085 43.4505 27.7847 43.3197C27.8608 43.1889 27.9829 43.0912 28.1273 43.0457L29.5654 42.5933L29.3137 41.3771C29.2833 41.2308 29.3079 41.0785 29.3827 40.9491C29.4576 40.8198 29.5774 40.7226 29.7193 40.6759L31.0304 40.2442L30.556 38.8905C30.5264 38.8062 30.5157 38.7164 30.5248 38.6275C30.5338 38.5385 30.5623 38.4527 30.6083 38.3761L32.4886 35.2443C31.5768 33.7895 31.1821 32.0697 31.3684 30.3628C31.5546 28.656 32.311 27.0618 33.5152 25.8379C34.7194 24.6141 36.3011 23.832 38.0047 23.618C39.7083 23.4041 41.4342 23.7708 42.9037 24.659L42.9906 24.7125C43.066 24.7581 43.1384 24.8025 43.2114 24.8505C43.278 24.8947 43.3352 24.9515 43.3799 25.0178C43.4245 25.0841 43.4556 25.1585 43.4715 25.2369C43.4874 25.3152 43.4877 25.3959 43.4723 25.4743C43.457 25.5527 43.4264 25.6274 43.3823 25.694C43.3381 25.7606 43.2812 25.8178 43.215 25.8624C43.1487 25.9071 43.0742 25.9382 42.9959 25.9541C42.9176 25.97 42.8369 25.9702 42.7585 25.9549C42.6801 25.9396 42.6054 25.909 42.5388 25.8648C42.478 25.8259 42.4208 25.79 42.3564 25.7529L42.267 25.6982C41.0067 24.9401 39.5242 24.6379 38.0677 24.8423C36.6112 25.0467 35.2691 25.7452 34.2662 26.8209C33.2632 27.8966 32.6602 29.2843 32.5581 30.7515C32.456 32.2187 32.8611 33.6764 33.7054 34.8807C33.773 34.9769 33.8112 35.0907 33.8154 35.2083C33.8196 35.3258 33.7897 35.442 33.7291 35.5429L31.8002 38.7567L32.3858 40.426C32.4126 40.5023 32.4239 40.5832 32.419 40.6639C32.4142 40.7446 32.3933 40.8235 32.3575 40.8961C32.3218 40.9686 32.272 41.0333 32.2109 41.0863C32.1499 41.1394 32.0789 41.1797 32.0021 41.205L30.6175 41.6611L30.8704 42.8834C30.9009 43.0309 30.8755 43.1844 30.7992 43.3143C30.7229 43.4442 30.6012 43.5411 30.4575 43.5863L29.0224 44.0382L29.3319 45.4824C29.3495 45.563 29.3505 45.6464 29.3349 45.7274C29.3192 45.8085 29.2872 45.8855 29.2408 45.9537C29.1945 46.022 29.1347 46.0801 29.0652 46.1245C28.9956 46.169 28.9177 46.1988 28.8363 46.2121L27.1433 46.4913L26.6483 47.311L27.3513 50.554L30.3718 49.4108L37.3389 37.8215C37.4008 37.7174 37.4926 37.6343 37.6024 37.583C37.7121 37.5317 37.8347 37.5146 37.9543 37.5338C39.2611 37.7427 40.6004 37.5381 41.7854 36.9488C41.857 36.9126 41.935 36.8909 42.015 36.8849C42.095 36.879 42.1754 36.889 42.2516 36.9142C42.3277 36.9395 42.3981 36.9796 42.4587 37.0322C42.5193 37.0848 42.5689 37.1489 42.6046 37.2208C42.6403 37.2926 42.6614 37.3708 42.6668 37.4509C42.6721 37.531 42.6615 37.6113 42.6357 37.6872C42.6099 37.7632 42.5692 37.8333 42.5162 37.8935C42.4631 37.9537 42.3987 38.0028 42.3266 38.038C41.0427 38.6767 39.6037 38.9369 38.1775 38.7884L31.3058 50.2208C31.2358 50.3373 31.1288 50.427 31.0018 50.4756L27.1239 51.9436C27.0546 51.9702 26.981 51.9836 26.9068 51.9831V51.9831Z" fill="#212D55"/>
<path d="M37.863 38.7416C37.7557 38.7411 37.6504 38.7122 37.5578 38.6578C37.4653 38.6034 37.3888 38.5255 37.3361 38.432C37.2834 38.3385 37.2564 38.2327 37.2579 38.1254C37.2593 38.018 37.2891 37.913 37.3443 37.8209L37.3486 37.8142C37.3901 37.746 37.4446 37.6866 37.5091 37.6394C37.5736 37.5923 37.6467 37.5583 37.7243 37.5394C37.802 37.5205 37.8825 37.5171 37.9615 37.5294C38.0404 37.5416 38.1162 37.5693 38.1844 37.6108C38.2526 37.6523 38.312 37.7069 38.3592 37.7714C38.4063 37.8359 38.4403 37.909 38.4592 37.9866C38.4781 38.0642 38.4815 38.1448 38.4693 38.2237C38.457 38.3027 38.4293 38.3784 38.3878 38.4467C38.3329 38.5367 38.2558 38.611 38.1639 38.6627C38.072 38.7143 37.9684 38.7415 37.863 38.7416V38.7416Z" fill="#212D55"/>
<path d="M48.2419 29.7817C48.1052 29.7832 47.9719 29.7386 47.8637 29.6551C47.7554 29.5716 47.6784 29.4541 47.6452 29.3214C47.6119 29.1888 47.6243 29.0488 47.6804 28.9241C47.7365 28.7994 47.833 28.6973 47.9543 28.6342C49.1532 27.8201 50.1002 26.6867 50.6881 25.3622C51.276 24.0377 51.4814 22.5751 51.2809 21.1399C51.0804 19.7047 50.4821 18.3544 49.5537 17.2417C48.6253 16.129 47.404 15.2985 46.0279 14.8442C44.6519 14.3899 43.1761 14.3299 41.7677 14.6711C40.3593 15.0123 39.0746 15.7409 38.059 16.7746C37.0434 17.8083 36.3375 19.1057 36.0213 20.5198C35.705 21.934 35.791 23.4085 36.2695 24.7763C36.2997 24.8523 36.3142 24.9336 36.3122 25.0154C36.3102 25.0972 36.2918 25.1777 36.258 25.2521C36.2241 25.3266 36.1757 25.3935 36.1154 25.4488C36.0551 25.5041 35.9843 25.5466 35.9072 25.5739C35.8301 25.6012 35.7483 25.6127 35.6667 25.6076C35.5851 25.6026 35.5053 25.5811 35.4322 25.5445C35.359 25.5079 35.294 25.4569 35.241 25.3946C35.1881 25.3323 35.1482 25.26 35.1238 25.1819C34.5669 23.5957 34.4663 21.8851 34.8334 20.2445C35.2005 18.6039 36.0206 17.0993 37.2004 15.9017C38.3802 14.7042 39.8724 13.8617 41.5073 13.4701C43.1422 13.0786 44.8542 13.1537 46.4485 13.6868C48.0429 14.22 49.4556 15.1899 50.5261 16.4862C51.5965 17.7824 52.2817 19.3531 52.5038 21.0195C52.7259 22.6859 52.4759 24.3812 51.7822 25.9125C51.0886 27.4439 49.9791 28.7498 48.58 29.6819C48.4797 29.748 48.362 29.7827 48.2419 29.7817V29.7817Z" fill="#212D55"/>
</svg>
