<svg width="76" height="76" viewBox="0 0 76 76" fill="none" xmlns="http://www.w3.org/2000/svg">
<g filter="url(#filter0_d_0_364)">
<circle cx="38" cy="35" r="23" fill="#9C8AFA"/>
</g>
<path d="M38.3116 36.0981C38.2672 36.0885 38.2216 36.0868 38.1766 36.0935C37.7259 36.041 37.3858 35.6597 37.3851 35.206C37.3851 34.9886 37.2088 34.8123 36.9914 34.8123C36.774 34.8123 36.5977 34.9886 36.5977 35.206C36.5989 35.9636 37.1056 36.6271 37.836 36.8276V37.2213C37.836 37.4387 38.0123 37.6149 38.2297 37.6149C38.4471 37.6149 38.6234 37.4387 38.6234 37.2213V36.8514C39.4664 36.675 40.0394 35.8898 39.9508 35.033C39.862 34.1763 39.1402 33.5252 38.2789 33.525C37.7853 33.525 37.3851 33.1248 37.3851 32.6312C37.3851 32.1376 37.7853 31.7374 38.2789 31.7374C38.7725 31.7374 39.1727 32.1376 39.1727 32.6312C39.1727 32.8486 39.349 33.0249 39.5664 33.0249C39.7838 33.0249 39.9601 32.8486 39.9601 32.6312C39.9589 31.8358 39.4017 31.1498 38.6234 30.9856V30.6273C38.6234 30.4099 38.4471 30.2336 38.2297 30.2336C38.0123 30.2336 37.836 30.4099 37.836 30.6273V31.0096C37.0237 31.2315 36.5008 32.0201 36.6127 32.8548C36.7246 33.6894 37.4368 34.3124 38.2789 34.3122C38.766 34.3122 39.1633 34.7022 39.1721 35.1891C39.1812 35.676 38.7983 36.0804 38.3116 36.0981Z" fill="white"/>
<path d="M32.5707 33.9489C32.5707 37.1017 35.1265 39.6575 38.2793 39.6575C41.4321 39.6575 43.9879 37.1017 43.9879 33.9489C43.9879 30.7961 41.4321 28.2403 38.2793 28.2403C35.128 28.2438 32.5743 30.7976 32.5707 33.9489ZM38.2793 29.0277C40.9973 29.0277 43.2005 31.2309 43.2005 33.9489C43.2005 36.6669 40.9973 38.8702 38.2793 38.8702C35.5613 38.8702 33.358 36.6669 33.358 33.9489C33.3611 31.2323 35.5626 29.0307 38.2793 29.0277Z" fill="white"/>
<path d="M45.9284 40.6279L42.8446 42.085C42.4188 41.293 41.602 40.789 40.7032 40.7636L37.8564 40.6854C37.4057 40.6725 36.9634 40.5583 36.5626 40.3513L36.2729 40.2012C34.7897 39.4281 33.0219 39.43 31.5402 40.2062L31.5583 39.55C31.5642 39.3326 31.393 39.1515 31.1756 39.1455L28.0539 39.0596C27.8365 39.0536 27.6556 39.2249 27.6497 39.4423L27.4611 46.2927C27.4551 46.5101 27.6264 46.6912 27.8438 46.6971L30.9655 46.7831H30.9762C31.1896 46.7831 31.3641 46.6133 31.3699 46.4001L31.3789 46.0724L32.1899 45.6382C32.5082 45.4669 32.8804 45.4262 33.2281 45.5246L38.0709 46.8838C38.0794 46.8863 38.0879 46.8882 38.0965 46.8901C38.4465 46.9634 38.8033 47.0001 39.1608 46.9999C39.9182 47.0003 40.6667 46.8371 41.355 46.5211C41.372 46.5134 41.3883 46.5043 41.4039 46.4941L48.4255 41.9523C48.6004 41.8391 48.6569 41.6094 48.5545 41.428C48.0332 40.503 46.877 40.1506 45.9284 40.6279ZM28.259 45.9209L28.4258 39.8575L30.7604 39.9217L30.5935 45.9853L28.259 45.9209ZM41.0004 45.8179C40.1452 46.2039 39.19 46.3104 38.2708 46.1226L33.4411 44.7668C32.8975 44.6133 32.3156 44.6769 31.8184 44.9443L31.4039 45.1663L31.5148 41.1348C32.8281 40.2614 34.5123 40.1716 35.9109 40.9003L36.2006 41.0504C36.7069 41.3119 37.2653 41.456 37.8349 41.4726L40.6819 41.5508C41.4815 41.5739 42.1606 42.1432 42.3229 42.9267L38.0823 42.8096C37.8649 42.8037 37.684 42.9751 37.6778 43.1924C37.6719 43.4098 37.8433 43.5908 38.0606 43.5968L42.7404 43.7256H42.7513C42.9645 43.7254 43.1389 43.5557 43.1446 43.3427C43.1494 43.1716 43.1367 43.0003 43.1066 42.8319L46.2696 41.3374C46.2726 41.3361 46.2757 41.3345 46.2788 41.333C46.7274 41.106 47.2699 41.1819 47.6389 41.5235L41.0004 45.8179Z" fill="white"/>
<path d="M38.6738 27.1335V23.3937C38.6738 23.1763 38.4975 23 38.2801 23C38.0627 23 37.8865 23.1763 37.8865 23.3937V27.1335C37.8865 27.3509 38.0627 27.5272 38.2801 27.5272C38.4975 27.5272 38.6738 27.3509 38.6738 27.1335Z" fill="white"/>
<path d="M41.6276 27.1335V25.362C41.6276 25.1446 41.4514 24.9683 41.234 24.9683C41.0166 24.9683 40.8403 25.1446 40.8403 25.362V27.1335C40.8403 27.3509 41.0166 27.5272 41.234 27.5272C41.4514 27.5272 41.6276 27.3509 41.6276 27.1335Z" fill="white"/>
<path d="M35.72 27.1335V25.362C35.72 25.1446 35.5437 24.9683 35.3263 24.9683C35.1089 24.9683 34.9326 25.1446 34.9326 25.362V27.1335C34.9326 27.3509 35.1089 27.5272 35.3263 27.5272C35.5437 27.5272 35.72 27.3509 35.72 27.1335Z" fill="white"/>
<defs>
<filter id="filter0_d_0_364" x="0" y="0" width="76" height="76" filterUnits="userSpaceOnUse" color-interpolation-filters="sRGB">
<feFlood flood-opacity="0" result="BackgroundImageFix"/>
<feColorMatrix in="SourceAlpha" type="matrix" values="0 0 0 0 0 0 0 0 0 0 0 0 0 0 0 0 0 0 127 0" result="hardAlpha"/>
<feOffset dy="3"/>
<feGaussianBlur stdDeviation="7.5"/>
<feComposite in2="hardAlpha" operator="out"/>
<feColorMatrix type="matrix" values="0 0 0 0 0.129412 0 0 0 0 0.176471 0 0 0 0 0.333333 0 0 0 0.15 0"/>
<feBlend mode="normal" in2="BackgroundImageFix" result="effect1_dropShadow_0_364"/>
<feBlend mode="normal" in="SourceGraphic" in2="effect1_dropShadow_0_364" result="shape"/>
</filter>
</defs>
</svg>
