<svg width="76" height="76" viewBox="0 0 76 76" fill="none" xmlns="http://www.w3.org/2000/svg">
<g filter="url(#filter0_d_0_320)">
<circle cx="38" cy="35" r="23" fill="#FEA15E"/>
</g>
<g clip-path="url(#clip0_0_320)">
<path d="M44.5004 32.4996H30.5C29.673 32.4996 29 33.1726 29 33.9997V34.9997C29 38.5677 30.971 41.8038 34.1431 43.4449C34.3881 43.5709 34.6901 43.4759 34.8171 43.2299C34.9431 42.9848 34.8481 42.6829 34.6021 42.5558C31.764 41.0878 30 38.1927 30 34.9996V33.9996C30 33.7236 30.224 33.4996 30.5 33.4996H44.5004C44.7764 33.4996 45.0004 33.7236 45.0004 33.9996V34.9996C45.0004 38.1927 43.2364 41.0878 40.3973 42.5548C40.1513 42.6818 40.0563 42.9838 40.1823 43.2288C40.2713 43.4008 40.4463 43.4998 40.6273 43.4998C40.7053 43.4998 40.7833 43.4818 40.8563 43.4438C44.0294 41.8037 46.0004 38.5687 46.0004 34.9996V33.9996C46.0004 33.1726 45.3274 32.4996 44.5004 32.4996Z" fill="white"/>
<path d="M48.9627 42.8078C48.8847 42.6208 48.7027 42.4988 48.5007 42.4988H26.5002C26.2982 42.4988 26.1162 42.6208 26.0382 42.8078C25.9602 42.9948 26.0032 43.2098 26.1462 43.3529L27.2672 44.4749C27.9293 45.1359 28.8073 45.4999 29.7423 45.4999H45.2567C46.1917 45.4999 47.0707 45.1359 47.7337 44.4749L48.8548 43.3529C48.9977 43.2098 49.0407 42.9948 48.9627 42.8078ZM47.0257 43.7679C46.5537 44.2398 45.9247 44.4999 45.2577 44.4999H29.7423C29.0753 44.4999 28.4463 44.2398 27.9743 43.7679L27.7063 43.4999H47.2937L47.0257 43.7679Z" fill="white"/>
<path d="M49.0329 34.8607C47.6859 33.9947 45.5338 34.9347 45.2928 35.0437C45.0418 35.1587 44.9298 35.4547 45.0448 35.7067C45.1598 35.9587 45.4548 36.0697 45.7078 35.9547C46.1898 35.7357 47.7359 35.2167 48.4919 35.7037C48.8329 35.9227 48.9999 36.3477 48.9999 36.9997C48.9999 39.0018 44.9618 40.2118 43.4027 40.5098L43.0487 40.5798C42.7777 40.6328 42.6017 40.8958 42.6547 41.1668C42.7017 41.4048 42.9107 41.5698 43.1447 41.5698C43.1767 41.5698 43.2087 41.5668 43.2417 41.5598L43.5927 41.4908C43.8547 41.4408 49.9999 40.2358 49.9999 36.9997C49.9999 35.9937 49.6739 35.2747 49.0329 34.8607Z" fill="white"/>
<path d="M41.3926 28.3116C42.2057 27.2955 42.2057 25.7045 41.3926 24.6885C41.2196 24.4724 40.9066 24.4364 40.6896 24.6105C40.4736 24.7835 40.4386 25.0974 40.6116 25.3135C41.1267 25.9565 41.1267 27.0435 40.6107 27.6885C39.7967 28.7046 39.7967 30.2956 40.6107 31.3116C40.7097 31.4356 40.8546 31.4996 41.0017 31.4996C41.1106 31.4996 41.2216 31.4636 41.3137 31.3896C41.5297 31.2166 41.5647 30.9016 41.3917 30.6866C40.8756 30.0436 40.8756 28.9566 41.3926 28.3116Z" fill="white"/>
<path d="M38.3878 28.3115C39.2018 27.2955 39.2018 25.7045 38.3878 24.6884C38.2159 24.4724 37.9008 24.4374 37.6848 24.6104C37.4688 24.7835 37.4338 25.0985 37.6068 25.3134C38.1229 25.9564 38.1229 27.0435 37.6059 27.6885C36.7928 28.7046 36.7928 30.2956 37.6059 31.3116C37.7049 31.4356 37.8498 31.4996 37.9969 31.4996C38.1058 31.4996 38.2159 31.4636 38.3089 31.3896C38.5249 31.2166 38.5599 30.9026 38.3869 30.6866C37.8718 30.0436 37.8718 28.9566 38.3878 28.3115Z" fill="white"/>
<path d="M35.3922 28.3125C36.2053 27.2965 36.2053 25.7054 35.3922 24.6894C35.2203 24.4734 34.9062 24.4374 34.6892 24.6114C34.4742 24.7834 34.4393 25.0984 34.6112 25.3134C35.1263 25.9564 35.1263 27.0435 34.6103 27.6885C33.7963 28.7045 33.7963 30.2956 34.6103 31.3116C34.7093 31.4356 34.8543 31.4996 35.0013 31.4996C35.1102 31.4996 35.2212 31.4636 35.3133 31.3906C35.5293 31.2176 35.5643 30.9026 35.3913 30.6876C34.8753 30.0435 34.8753 28.9575 35.3922 28.3125Z" fill="white"/>
</g>
<defs>
<filter id="filter0_d_0_320" x="0" y="0" width="76" height="76" filterUnits="userSpaceOnUse" color-interpolation-filters="sRGB">
<feFlood flood-opacity="0" result="BackgroundImageFix"/>
<feColorMatrix in="SourceAlpha" type="matrix" values="0 0 0 0 0 0 0 0 0 0 0 0 0 0 0 0 0 0 127 0" result="hardAlpha"/>
<feOffset dy="3"/>
<feGaussianBlur stdDeviation="7.5"/>
<feComposite in2="hardAlpha" operator="out"/>
<feColorMatrix type="matrix" values="0 0 0 0 0.129412 0 0 0 0 0.176471 0 0 0 0 0.333333 0 0 0 0.15 0"/>
<feBlend mode="normal" in2="BackgroundImageFix" result="effect1_dropShadow_0_320"/>
<feBlend mode="normal" in="SourceGraphic" in2="effect1_dropShadow_0_320" result="shape"/>
</filter>
<clipPath id="clip0_0_320">
<rect width="24" height="24" fill="white" transform="translate(26 23)"/>
</clipPath>
</defs>
</svg>
