<svg width="25" height="24" viewBox="0 0 25 24" fill="none" xmlns="http://www.w3.org/2000/svg">
<g clip-path="url(#clip0_0_1049)">
<path d="M19.1148 14.8671C18.6219 14.3555 18.0274 14.082 17.3974 14.082C16.7724 14.082 16.1728 14.3505 15.6596 14.8621L14.0539 16.4576C13.9218 16.3867 13.7897 16.3209 13.6627 16.255C13.4798 16.1639 13.307 16.0777 13.1596 15.9866C11.6556 15.0343 10.2888 13.7933 8.97782 12.1875C8.34267 11.3872 7.91585 10.7135 7.60589 10.0297C8.02255 9.64979 8.40872 9.25469 8.78473 8.87479C8.92701 8.73296 9.06928 8.58607 9.21155 8.44424C10.2786 7.38051 10.2786 6.00273 9.21155 4.939L7.82439 3.55616C7.66687 3.39913 7.50427 3.23704 7.35183 3.07495C7.04696 2.7609 6.72685 2.43671 6.39657 2.13279C5.90369 1.64652 5.31428 1.38818 4.69437 1.38818C4.07446 1.38818 3.47488 1.64652 2.96676 2.13279C2.96168 2.13786 2.96168 2.13786 2.9566 2.14292L1.229 3.88034C0.578603 4.52871 0.207676 5.31891 0.126377 6.23574C0.00442845 7.71482 0.441411 9.0926 0.77677 9.99424C1.59992 12.2078 2.82957 14.2593 4.66388 16.4576C6.88945 19.1068 9.56723 21.1988 12.6261 22.6728C13.7948 23.225 15.3547 23.8784 17.0976 23.9898C17.2043 23.9949 17.3161 24 17.4177 24C18.5914 24 19.5772 23.5795 20.3495 22.7438C20.3546 22.7336 20.3648 22.7286 20.3699 22.7184C20.6341 22.3993 20.9389 22.1106 21.2591 21.8016C21.4776 21.5939 21.7011 21.3761 21.9196 21.1482C22.4227 20.6264 22.6869 20.0186 22.6869 19.3956C22.6869 18.7675 22.4176 18.1647 21.9044 17.6581L19.1148 14.8671ZM20.9339 20.2009C20.9288 20.2009 20.9288 20.206 20.9339 20.2009C20.7357 20.4137 20.5325 20.6062 20.314 20.8189C19.9837 21.133 19.6483 21.4622 19.3333 21.832C18.8201 22.3791 18.2154 22.6374 17.4228 22.6374C17.3465 22.6374 17.2652 22.6374 17.189 22.6323C15.6799 22.5361 14.2775 21.9485 13.2257 21.447C10.3497 20.0591 7.82439 18.0887 5.72585 15.5915C3.99317 13.5096 2.83465 11.5848 2.06739 9.51809C1.59484 8.25682 1.42208 7.27414 1.4983 6.34718C1.54911 5.75453 1.77777 5.26319 2.1995 4.84276L3.93219 3.11547C4.18117 2.88247 4.44539 2.75583 4.70453 2.75583C5.02465 2.75583 5.28379 2.94832 5.44639 3.11041C5.45147 3.11547 5.45655 3.12054 5.46163 3.1256C5.77158 3.41433 6.06629 3.71319 6.37625 4.0323C6.53376 4.1944 6.69636 4.35649 6.85896 4.52364L8.24613 5.90649C8.78473 6.44342 8.78473 6.93982 8.24613 7.47675C8.09877 7.62365 7.9565 7.77054 7.80914 7.91237C7.38232 8.34799 6.97583 8.75322 6.53376 9.14832C6.5236 9.15845 6.51344 9.16352 6.50836 9.17365C6.07137 9.60927 6.15267 10.0348 6.24413 10.3235C6.24922 10.3387 6.2543 10.3539 6.25938 10.3691C6.62014 11.2403 7.12826 12.0609 7.9006 13.0385L7.90569 13.0436C9.30809 14.7658 10.7867 16.1081 12.4178 17.1364C12.6261 17.2681 12.8395 17.3745 13.0428 17.4758C13.2257 17.567 13.3985 17.6531 13.5458 17.7442C13.5661 17.7544 13.5865 17.7696 13.6068 17.7797C13.7795 17.8658 13.9421 17.9063 14.1098 17.9063C14.5316 17.9063 14.7958 17.6429 14.8822 17.5568L16.6199 15.8245C16.7927 15.6523 17.0671 15.4446 17.3872 15.4446C17.7022 15.4446 17.9614 15.6421 18.1189 15.8143C18.124 15.8194 18.124 15.8194 18.129 15.8245L20.9288 18.6155C21.4521 19.1322 21.4521 19.664 20.9339 20.2009Z" fill="#31BEF4"/>
<path d="M13.0998 5.70908C14.4311 5.93196 15.6404 6.56006 16.6058 7.52248C17.5712 8.4849 18.1962 9.69046 18.4249 11.0176C18.4808 11.3519 18.7704 11.5849 19.1007 11.5849C19.1413 11.5849 19.1769 11.5798 19.2175 11.5748C19.5936 11.514 19.8425 11.1594 19.7816 10.7846C19.5072 9.17886 18.745 7.71497 17.5814 6.555C16.4178 5.39503 14.9493 4.63522 13.3386 4.36169C12.9626 4.30091 12.612 4.54911 12.5459 4.91888C12.4799 5.28866 12.7238 5.6483 13.0998 5.70908Z" fill="#31BEF4"/>
<path d="M24.1371 10.5871C23.6849 7.94303 22.4349 5.53698 20.5142 3.62227C18.5935 1.70757 16.18 0.461487 13.5276 0.0106694C13.1567 -0.0551803 12.8061 0.198088 12.74 0.567859C12.679 0.942696 12.928 1.29221 13.304 1.35806C15.6719 1.75822 17.8314 2.87767 19.5488 4.58469C21.2663 6.29679 22.3841 8.44957 22.7855 10.81C22.8414 11.1443 23.1311 11.3773 23.4613 11.3773C23.502 11.3773 23.5375 11.3723 23.5782 11.3672C23.9491 11.3115 24.2032 10.9569 24.1371 10.5871Z" fill="#31BEF4"/>
</g>
<defs>
<clipPath id="clip0_0_1049">
<rect width="24.075" height="24" fill="white" transform="translate(0.0898438)"/>
</clipPath>
</defs>
</svg>
