<svg width="46" height="46" viewBox="0 0 46 46" fill="none" xmlns="http://www.w3.org/2000/svg">
<circle cx="23" cy="23" r="23" fill="white"/>
<g clip-path="url(#clip0_0_240)">
<path d="M26.7986 30.7249C26.8377 30.7314 26.8766 30.7346 26.915 30.7346C27.2525 30.7346 27.5504 30.4909 27.6077 30.1469L28.3109 25.9282C28.3747 25.5452 28.1159 25.1829 27.7329 25.119C27.3498 25.055 26.9876 25.3139 26.9237 25.697L26.2206 29.9158C26.1568 30.2988 26.4155 30.6611 26.7986 30.7249Z" fill="#31BEF4"/>
<path d="M18.4394 30.1469C18.4967 30.4908 18.7945 30.7346 19.1321 30.7346C19.1705 30.7346 19.2094 30.7314 19.2485 30.7249C19.6316 30.661 19.8903 30.2988 19.8265 29.9157L19.1234 25.6969C19.0595 25.3139 18.6973 25.0552 18.3142 25.119C17.9311 25.1828 17.6724 25.5451 17.7362 25.9281L18.4394 30.1469Z" fill="#31BEF4"/>
<path d="M34.2969 19.4844H31.8223L26.4084 12.7171C26.1659 12.4139 25.7234 12.3647 25.4202 12.6073C25.1169 12.8499 25.0677 13.2923 25.3104 13.5956L30.0215 19.4844H15.9785L20.6897 13.5956C20.9323 13.2923 20.8831 12.8498 20.5799 12.6073C20.2766 12.3647 19.8342 12.4139 19.5916 12.7171L14.1777 19.4844H11.7031C11.3148 19.4844 11 19.7992 11 20.1876V23.0001C11 23.3884 11.3148 23.7032 11.7031 23.7032H12.579L15.2458 33.037C15.332 33.3388 15.608 33.5469 15.9219 33.5469H30.0781C30.392 33.5469 30.668 33.3388 30.7542 33.037L33.421 23.7032H34.2969C34.6852 23.7032 35 23.3884 35 23.0001V20.1876C35 19.7992 34.6852 19.4844 34.2969 19.4844ZM29.5478 32.1407H16.4522L14.0415 23.7032H31.9585L29.5478 32.1407ZM33.5938 22.2969C31.1851 22.2969 14.6881 22.2969 12.4062 22.2969V20.8907H33.5938V22.2969Z" fill="#31BEF4"/>
<path d="M23 30.7344C23.3883 30.7344 23.7031 30.4196 23.7031 30.0312V25.8125C23.7031 25.4242 23.3883 25.1094 23 25.1094C22.6117 25.1094 22.2969 25.4242 22.2969 25.8125V30.0312C22.2969 30.4196 22.6117 30.7344 23 30.7344Z" fill="#31BEF4"/>
</g>
<defs>
<clipPath id="clip0_0_240">
<rect width="24" height="24" fill="white" transform="translate(11 11)"/>
</clipPath>
</defs>
</svg>
