<svg width="11" height="11" viewBox="0 0 11 11" fill="none" xmlns="http://www.w3.org/2000/svg">
<g clip-path="url(#clip0_0_1630)">
<path d="M5.19827 8.34436L0.124514 3.25653C-0.0416242 3.08984 -0.0413449 2.81995 0.125373 2.65353C0.29207 2.48725 0.562106 2.48768 0.728373 2.65439L5.50014 7.43938L10.2719 2.65422C10.4382 2.48753 10.708 2.4871 10.8748 2.65336C10.9583 2.73679 11.0001 2.84608 11.0001 2.95537C11.0001 3.06438 10.9586 3.17324 10.8756 3.25651L5.80199 8.34436C5.72212 8.42465 5.61341 8.4697 5.50014 8.4697C5.38688 8.4697 5.27829 8.42452 5.19827 8.34436Z" fill="white"/>
</g>
<defs>
<clipPath id="clip0_0_1630">
<rect width="11" height="11" fill="white" transform="matrix(0 1 1 0 0 0)"/>
</clipPath>
</defs>
</svg>
