<svg width="76" height="76" viewBox="0 0 76 76" fill="none" xmlns="http://www.w3.org/2000/svg">
<g filter="url(#filter0_d_0_382)">
<circle cx="38" cy="35" r="23" fill="#BAADFF"/>
</g>
<path d="M38.8514 26.7033H29.9514C29.6748 26.7033 29.4485 26.9296 29.4485 27.2061V33.0892C29.4485 33.3658 29.6748 33.5921 29.9514 33.5921H38.8514C39.128 33.5921 39.3543 33.3658 39.3543 33.0892V27.2061C39.3543 26.9296 39.128 26.7033 38.8514 26.7033ZM38.3486 32.5864H30.4542V27.709H38.3486V32.5864Z" fill="white"/>
<path d="M49.4921 44.7549H41.0647V36.7096H41.8843C42.6285 36.7096 43.2319 37.318 43.2269 38.0622C43.2269 38.0673 43.2269 38.0673 43.2269 38.0723V39.4651C43.2269 40.9384 44.4186 42.1301 45.8919 42.1301C47.3652 42.1301 48.5569 40.9384 48.5569 39.4651V31.5104C48.5569 30.6857 48.2502 29.8913 47.687 29.2828L43.7549 24.8026L43.0006 25.4664L46.0478 28.9409C44.9466 29.127 44.2024 30.1678 44.3884 31.269C44.5493 32.2445 45.3941 32.9585 46.3847 32.9585C46.802 32.9535 47.2093 32.8278 47.5512 32.5864V39.4651C47.5512 40.3803 46.807 41.1245 45.8919 41.1245C44.9767 41.1245 44.2326 40.3803 44.2326 39.4651V38.0723C44.2376 36.77 43.1867 35.709 41.8894 35.704H41.8843H41.0647V26.3363C41.0647 25.1898 40.1395 24.2395 38.9931 24.2395H29.6505C28.5041 24.2395 27.5889 25.1948 27.5889 26.3363V44.7549H26.5028C26.2263 44.7549 26 44.9811 26 45.2577C26 45.5343 26.2263 45.7605 26.5028 45.7605H49.4972C49.7737 45.7605 50 45.5343 50 45.2577C50 44.9811 49.7737 44.7549 49.4921 44.7549ZM46.3847 31.9478C45.8215 31.9478 45.369 31.4903 45.369 30.9321C45.369 30.374 45.8265 29.9164 46.3847 29.9164C46.9478 29.9164 47.4004 30.374 47.4004 30.9321C47.4004 31.4903 46.9428 31.9478 46.3847 31.9478ZM40.0591 44.7549H28.5946V26.3363C28.5946 25.7429 29.0572 25.2451 29.6505 25.2451H38.9931C39.5864 25.2451 40.0591 25.748 40.0591 26.3363V44.7549Z" fill="white"/>
<defs>
<filter id="filter0_d_0_382" x="0" y="0" width="76" height="76" filterUnits="userSpaceOnUse" color-interpolation-filters="sRGB">
<feFlood flood-opacity="0" result="BackgroundImageFix"/>
<feColorMatrix in="SourceAlpha" type="matrix" values="0 0 0 0 0 0 0 0 0 0 0 0 0 0 0 0 0 0 127 0" result="hardAlpha"/>
<feOffset dy="3"/>
<feGaussianBlur stdDeviation="7.5"/>
<feComposite in2="hardAlpha" operator="out"/>
<feColorMatrix type="matrix" values="0 0 0 0 0.129412 0 0 0 0 0.176471 0 0 0 0 0.333333 0 0 0 0.15 0"/>
<feBlend mode="normal" in2="BackgroundImageFix" result="effect1_dropShadow_0_382"/>
<feBlend mode="normal" in="SourceGraphic" in2="effect1_dropShadow_0_382" result="shape"/>
</filter>
</defs>
</svg>
