<svg width="46" height="46" viewBox="0 0 46 46" fill="none" xmlns="http://www.w3.org/2000/svg">
<circle cx="23" cy="23" r="23" fill="white"/>
<path d="M23.8514 14.7033H14.9514C14.6748 14.7033 14.4485 14.9296 14.4485 15.2061V21.0892C14.4485 21.3658 14.6748 21.5921 14.9514 21.5921H23.8514C24.128 21.5921 24.3543 21.3658 24.3543 21.0892V15.2061C24.3543 14.9296 24.128 14.7033 23.8514 14.7033ZM23.3486 20.5864H15.4542V15.709H23.3486V20.5864Z" fill="#31BEF4"/>
<path d="M34.4921 32.7549H26.0647V24.7096H26.8843C27.6285 24.7096 28.2319 25.318 28.2269 26.0622C28.2269 26.0672 28.2269 26.0673 28.2269 26.0723V27.4651C28.2269 28.9384 29.4186 30.1301 30.8919 30.1301C32.3652 30.1301 33.5569 28.9384 33.5569 27.4651V19.5104C33.5569 18.6857 33.2502 17.8913 32.687 17.2828L28.7549 12.8026L28.0006 13.4664L31.0478 16.9409C29.9466 17.127 29.2024 18.1678 29.3884 19.269C29.5493 20.2445 30.3941 20.9585 31.3847 20.9585C31.802 20.9535 32.2093 20.8278 32.5512 20.5864V27.4651C32.5512 28.3803 31.807 29.1244 30.8919 29.1244C29.9767 29.1244 29.2326 28.3803 29.2326 27.4651V26.0723C29.2376 24.77 28.1867 23.709 26.8894 23.704H26.8843H26.0647V14.3363C26.0647 13.1898 25.1395 12.2395 23.9931 12.2395H14.6505C13.5041 12.2395 12.5889 13.1948 12.5889 14.3363V32.7549H11.5028C11.2263 32.7549 11 32.9811 11 33.2577C11 33.5343 11.2263 33.7605 11.5028 33.7605H34.4972C34.7737 33.7605 35 33.5343 35 33.2577C35 32.9811 34.7737 32.7549 34.4921 32.7549ZM31.3847 19.9478C30.8215 19.9478 30.369 19.4903 30.369 18.9321C30.369 18.374 30.8265 17.9164 31.3847 17.9164C31.9478 17.9164 32.4004 18.374 32.4004 18.9321C32.4004 19.4903 31.9428 19.9478 31.3847 19.9478ZM25.0591 32.7549H13.5946V14.3363C13.5946 13.7429 14.0572 13.2451 14.6505 13.2451H23.9931C24.5864 13.2451 25.0591 13.748 25.0591 14.3363V32.7549Z" fill="#31BEF4"/>
</svg>
