<svg width="51" height="51" viewBox="0 0 51 51" fill="none" xmlns="http://www.w3.org/2000/svg">
<circle cx="25.5" cy="25.5" r="25.5" fill="#31BEF4"/>
<path d="M25.4987 11C20.1686 11 15.832 15.3366 15.832 20.6667C15.832 22.2668 16.2321 23.8533 16.9926 25.2605L24.9701 39.6885C25.0763 39.8808 25.2787 40 25.4987 40C25.7188 40 25.9211 39.8808 26.0273 39.6885L34.0078 25.2557C34.7654 23.8533 35.1654 22.2667 35.1654 20.6666C35.1654 15.3366 30.8288 11 25.4987 11ZM25.4987 25.5C22.8337 25.5 20.6654 23.3317 20.6654 20.6667C20.6654 18.0016 22.8337 15.8334 25.4987 15.8334C28.1638 15.8334 30.332 18.0016 30.332 20.6667C30.332 23.3317 28.1638 25.5 25.4987 25.5Z" fill="white"/>
</svg>
