<svg width="46" height="46" viewBox="0 0 46 46" fill="none" xmlns="http://www.w3.org/2000/svg">
<circle cx="23" cy="23" r="23" fill="white"/>
<g clip-path="url(#clip0_0_293)">
<path d="M34.2969 18.5313H27.4687V11.7031C27.4687 11.3148 27.1539 11 26.7656 11H19.2344C18.8461 11 18.5313 11.3148 18.5313 11.7031V18.5313H11.7031C11.3148 18.5313 11 18.8461 11 19.2344V26.7656C11 27.1539 11.3148 27.4687 11.7031 27.4687H18.5313V34.2969C18.5313 34.6852 18.8461 35 19.2344 35H26.7656C27.1539 35 27.4687 34.6852 27.4687 34.2969V27.4687H34.2969C34.6852 27.4687 35 27.1539 35 26.7656V19.2344C35 18.8461 34.6852 18.5313 34.2969 18.5313ZM33.5938 26.0625H26.7656C26.3773 26.0625 26.0625 26.3773 26.0625 26.7656V33.5938H19.9375V26.7656C19.9375 26.3773 19.6227 26.0625 19.2344 26.0625H12.4062V19.9375H19.2344C19.6227 19.9375 19.9375 19.6227 19.9375 19.2344V12.4062H26.0625V19.2344C26.0625 19.6227 26.3773 19.9375 26.7656 19.9375H33.5938V26.0625Z" fill="#31BEF4"/>
</g>
<defs>
<clipPath id="clip0_0_293">
<rect width="24" height="24" fill="white" transform="translate(11 11)"/>
</clipPath>
</defs>
</svg>
