<svg width="46" height="46" viewBox="0 0 46 46" fill="none" xmlns="http://www.w3.org/2000/svg">
<circle cx="23" cy="23" r="23" fill="white"/>
<g clip-path="url(#clip0_0_262)">
<path d="M19.2456 22.25C20.8999 22.25 22.2456 21.1565 22.2456 19.8125C22.2456 19.713 22.2061 19.6176 22.1358 19.5473C22.0655 19.477 21.9701 19.4375 21.8706 19.4375C21.7712 19.4375 21.6758 19.477 21.6055 19.5473C21.5351 19.6176 21.4956 19.713 21.4956 19.8125C21.4956 20.6471 20.6833 21.3418 19.6206 21.4761V20.2859C19.6603 20.2661 19.6984 20.2432 19.7344 20.2175L20.3709 19.7633C20.4877 19.6786 20.5826 19.5672 20.6477 19.4385C20.7129 19.3097 20.7464 19.1673 20.7456 19.023C20.7456 18.5279 20.3582 18.1251 19.8821 18.1251H18.6092C18.133 18.1251 17.7456 18.5279 17.7456 19.023C17.7448 19.1673 17.7783 19.3097 17.8435 19.4385C17.9087 19.5672 18.0036 19.6786 18.1204 19.7633L18.7568 20.2175C18.7929 20.2433 18.8309 20.2661 18.8706 20.2859V21.4761C17.8079 21.3418 16.9956 20.6471 16.9956 19.8125C16.9956 19.713 16.9561 19.6176 16.8858 19.5473C16.8155 19.477 16.7201 19.4375 16.6206 19.4375C16.5212 19.4375 16.4258 19.477 16.3555 19.5473C16.2851 19.6176 16.2456 19.713 16.2456 19.8125C16.2456 21.1565 17.5914 22.25 19.2456 22.25ZM18.5561 19.1527C18.5366 19.1373 18.521 19.1175 18.5105 19.0949C18.5001 19.0724 18.495 19.0477 18.4957 19.0228C18.4957 18.9427 18.5478 18.875 18.6093 18.875H19.8822C19.9437 18.875 19.9957 18.9427 19.9957 19.0228C19.9965 19.0477 19.9914 19.0724 19.9809 19.0949C19.9704 19.1175 19.9548 19.1373 19.9353 19.1527L19.2989 19.6069C19.2836 19.6186 19.2649 19.625 19.2457 19.625C19.2265 19.625 19.2078 19.6186 19.1925 19.6069L18.5561 19.1527Z" fill="#31BEF4"/>
<path d="M21.4956 18.125C21.7027 18.125 21.8706 17.9571 21.8706 17.75C21.8706 17.5429 21.7027 17.375 21.4956 17.375C21.2885 17.375 21.1206 17.5429 21.1206 17.75C21.1206 17.9571 21.2885 18.125 21.4956 18.125Z" fill="#31BEF4"/>
<path d="M16.9956 18.125C17.2027 18.125 17.3706 17.9571 17.3706 17.75C17.3706 17.5429 17.2027 17.375 16.9956 17.375C16.7885 17.375 16.6206 17.5429 16.6206 17.75C16.6206 17.9571 16.7885 18.125 16.9956 18.125Z" fill="#31BEF4"/>
<path d="M29 25.625C29.2967 25.625 29.5867 25.537 29.8334 25.3722C30.08 25.2074 30.2723 24.9731 30.3858 24.699C30.4994 24.4249 30.5291 24.1233 30.4712 23.8324C30.4133 23.5414 30.2705 23.2741 30.0607 23.0643C29.8509 22.8545 29.5836 22.7117 29.2926 22.6538C29.0017 22.5959 28.7001 22.6256 28.426 22.7392C28.1519 22.8527 27.9176 23.045 27.7528 23.2916C27.588 23.5383 27.5 23.8283 27.5 24.125C27.5004 24.5227 27.6586 24.904 27.9398 25.1852C28.221 25.4664 28.6023 25.6246 29 25.625ZM29 23.375C29.1483 23.375 29.2933 23.419 29.4167 23.5014C29.54 23.5838 29.6362 23.7009 29.6929 23.838C29.7497 23.975 29.7645 24.1258 29.7356 24.2713C29.7067 24.4168 29.6352 24.5504 29.5303 24.6553C29.4255 24.7602 29.2918 24.8316 29.1463 24.8606C29.0008 24.8895 28.85 24.8747 28.713 24.8179C28.5759 24.7611 28.4588 24.665 28.3764 24.5417C28.294 24.4183 28.25 24.2733 28.25 24.125C28.2502 23.9262 28.3293 23.7355 28.4699 23.5949C28.6105 23.4543 28.8012 23.3752 29 23.375Z" fill="#31BEF4"/>
<path d="M34.2508 26.375H32.0008V21.5C32.0009 21.4231 31.9771 21.348 31.9329 21.2851L29.3079 17.5351C29.2733 17.4857 29.2273 17.4454 29.1738 17.4175C29.1204 17.3897 29.0609 17.3751 29.0006 17.3751C28.9404 17.3751 28.8809 17.3897 28.8275 17.4175C28.774 17.4454 28.728 17.4857 28.6934 17.5351L26.0684 21.2851C26.0243 21.3481 26.0007 21.4231 26.0008 21.5V23.8467C25.4873 23.1563 24.8022 22.5835 23.9562 22.1417C24.7915 21.1599 25.2466 19.8843 25.2466 18.5C25.2486 17.8884 25.1558 17.2801 24.9716 16.6968C25.3369 16.504 25.6515 16.2278 25.8898 15.8905C26.1282 15.5532 26.2837 15.1645 26.3435 14.7558C26.4034 14.3472 26.366 13.9302 26.2343 13.5387C26.1027 13.1472 25.8805 12.7923 25.5859 12.5029C25.2913 12.2134 24.9325 11.9976 24.5388 11.8729C24.145 11.7482 23.7274 11.7182 23.3199 11.7852C22.9124 11.8523 22.5264 12.0146 22.1934 12.2589C21.8604 12.5032 21.5898 12.8227 21.4035 13.1913C20.705 12.9761 19.9775 12.8694 19.2466 12.875C18.5158 12.8694 17.7884 12.9761 17.0899 13.1913C16.9036 12.8227 16.633 12.5033 16.3 12.259C15.967 12.0146 15.581 11.8523 15.1735 11.7853C14.766 11.7182 14.3483 11.7482 13.9546 11.8729C13.5609 11.9976 13.2021 12.2134 12.9075 12.5029C12.6129 12.7923 12.3907 13.1472 12.2591 13.5387C12.1274 13.9301 12.09 14.3471 12.1498 14.7558C12.2097 15.1644 12.3651 15.5532 12.6035 15.8905C12.8419 16.2278 13.1565 16.504 13.5217 16.6968C13.3375 17.2801 13.2447 17.8884 13.2466 18.5C13.2466 19.8843 13.702 21.16 14.537 22.1417C12.7114 23.0952 11.6349 24.6591 11.4141 26.6951C11.4136 26.6998 11.4131 26.7045 11.4128 26.7091L11.3768 27.2239C11.3756 27.2408 11.3756 27.2578 11.3768 27.2747C11.4068 27.7137 11.5645 28.1343 11.8306 28.4847C12.0967 28.835 12.4595 29.0999 12.8742 29.2467C12.6268 29.7537 12.4991 30.3108 12.5008 30.875C12.5008 32.736 13.8466 34.25 15.5008 34.25C16.3915 34.25 17.1922 33.8107 17.7422 33.1151C18.2049 33.3677 18.7237 33.5 19.2508 33.5C19.778 33.5 20.2968 33.3677 20.7595 33.1151C21.3094 33.8107 22.1102 34.25 23.0008 34.25C24.1763 34.25 25.1954 33.4852 25.6872 32.375H34.2508C34.3503 32.375 34.4457 32.3355 34.516 32.2652C34.5863 32.1949 34.6258 32.0995 34.6258 32V26.75C34.6258 26.6506 34.5863 26.5552 34.516 26.4848C34.4457 26.4145 34.3503 26.375 34.2508 26.375ZM29.0008 18.4039L30.9056 21.125H27.0961L29.0008 18.4039ZM26.7508 21.875H31.2508V26.375H27.036C26.9769 25.9918 26.8814 25.6151 26.7508 25.25V21.875ZM25.6262 29.244C25.9795 29.1172 26.2958 28.9045 26.5465 28.625H27.1258V30.125H25.9252C25.8639 29.8197 25.7634 29.5236 25.6262 29.244ZM26.3327 26.769L26.3665 27.2497C26.3395 27.5671 26.2123 27.8677 26.0034 28.1082C25.7944 28.3486 25.5145 28.5165 25.204 28.5875C24.7339 28.0149 24.0902 27.626 23.3679 27.5264C23.2996 26.0011 22.7855 24.5937 21.9455 23.6084C22.4751 23.3847 22.9662 23.079 23.4008 22.7026C25.1186 23.5254 26.1307 24.9262 26.3327 26.7688V26.769ZM23.7466 12.5C24.1586 12.4999 24.5592 12.6355 24.8865 12.8858C25.2137 13.1362 25.4494 13.4874 25.5571 13.8851C25.6647 14.2828 25.6384 14.7049 25.4821 15.0861C25.3259 15.4674 25.0484 15.7865 24.6926 15.9943C24.4308 15.4457 24.0755 14.947 23.6426 14.5203C23.1958 14.0822 22.6767 13.7246 22.108 13.4635C22.2708 13.1717 22.5085 12.9286 22.7965 12.7593C23.0845 12.5899 23.4125 12.5004 23.7466 12.5ZM12.8716 14.375C12.8715 13.9596 13.0093 13.5559 13.2635 13.2274C13.5176 12.8988 13.8737 12.6639 14.2758 12.5596C14.6779 12.4553 15.1032 12.4874 15.4851 12.651C15.8669 12.8146 16.1836 13.1004 16.3854 13.4635C15.8168 13.7246 15.2976 14.0821 14.8509 14.5203C14.4179 14.9469 14.0626 15.4457 13.8009 15.9942C13.5183 15.8287 13.2839 15.5922 13.1209 15.3082C12.958 15.0242 12.872 14.7025 12.8716 14.375ZM15.3768 15.0551C16.3281 14.1195 17.6665 13.625 19.2466 13.625C20.8268 13.625 22.1651 14.1195 23.1165 15.0551C24.0065 15.9303 24.4966 17.1537 24.4966 18.5C24.4966 19.8464 24.0065 21.0697 23.1165 21.9449C22.1651 22.8805 20.8269 23.375 19.2466 23.375C17.6663 23.375 16.3281 22.8805 15.3768 21.945C14.4867 21.0697 13.9966 19.8464 13.9966 18.5C13.9966 17.1537 14.4867 15.9303 15.3768 15.0551ZM12.1268 27.2496L12.1605 26.7689C12.3626 24.9262 13.3745 23.5254 15.0924 22.7025C15.5289 23.0805 16.0224 23.3872 16.5546 23.6112C15.7171 24.5968 15.2024 26.0083 15.1338 27.5262C14.4108 27.6259 13.7665 28.0156 13.2964 28.5889C12.9843 28.5191 12.7026 28.3516 12.4923 28.1107C12.2819 27.8699 12.1539 27.5682 12.1268 27.2496ZM15.5008 33.5C14.2601 33.5 13.2508 32.3225 13.2508 30.875C13.2508 29.4276 14.2601 28.25 15.5008 28.25C16.7415 28.25 17.7508 29.4276 17.7508 30.875C17.7508 32.3225 16.7415 33.5 15.5008 33.5ZM19.2508 32.75C18.8643 32.7487 18.4838 32.655 18.1408 32.4767C18.3796 31.9766 18.5026 31.4292 18.5008 30.875C18.5008 29.1604 17.3582 27.7414 15.8846 27.5286C15.9567 26.0661 16.4822 24.7292 17.3259 23.8782C17.9522 24.0458 18.5982 24.1289 19.2466 24.125C19.8972 24.1289 20.5454 24.0454 21.1737 23.8766C22.0201 24.7274 22.5455 26.059 22.6172 27.5287C21.1436 27.7413 20.0008 29.1603 20.0008 30.875C19.9991 31.4292 20.1221 31.9766 20.3608 32.4767C20.0179 32.655 19.6373 32.7487 19.2508 32.75ZM23.0008 33.5C21.7601 33.5 20.7508 32.3225 20.7508 30.875C20.7508 29.4276 21.7601 28.25 23.0008 28.25C24.2415 28.25 25.2508 29.4276 25.2508 30.875C25.2508 32.3225 24.2415 33.5 23.0008 33.5ZM26.0008 30.875H27.5008C27.6003 30.875 27.6957 30.8355 27.766 30.7652C27.8363 30.6949 27.8758 30.5995 27.8758 30.5V28.25C27.8758 28.1506 27.8363 28.0552 27.766 27.9848C27.6957 27.9145 27.6003 27.875 27.5008 27.875H26.9926C27.0613 27.6816 27.1031 27.4796 27.1166 27.2747C27.1178 27.2578 27.1178 27.2408 27.1166 27.2239L27.1097 27.125H28.6258V31.625H25.9252C25.9754 31.3782 26.0007 31.1269 26.0008 30.875ZM33.8758 31.625H29.3758V27.125H33.8758V31.625Z" fill="#31BEF4"/>
<path d="M30.5002 30.8751H32.7502C32.8142 30.8751 32.877 30.8587 32.9328 30.8276C32.9887 30.7965 33.0356 30.7516 33.0692 30.6972C33.1028 30.6428 33.122 30.5808 33.1248 30.5169C33.1277 30.453 33.1142 30.3895 33.0856 30.3323L31.9606 28.0823C31.9295 28.0201 31.8816 27.9677 31.8224 27.9311C31.7631 27.8945 31.6949 27.8751 31.6252 27.8751C31.5556 27.8751 31.4873 27.8945 31.4281 27.9311C31.3689 27.9677 31.321 28.0201 31.2898 28.0823L30.1648 30.3323C30.1363 30.3895 30.1228 30.453 30.1256 30.5169C30.1285 30.5808 30.1476 30.6428 30.1812 30.6972C30.2148 30.7516 30.2618 30.7965 30.3176 30.8276C30.3735 30.8587 30.4363 30.8751 30.5002 30.8751ZM31.6252 29.0886L32.1435 30.1251H31.107L31.6252 29.0886Z" fill="#31BEF4"/>
</g>
<defs>
<clipPath id="clip0_0_262">
<rect width="24" height="24" fill="white" transform="translate(11 11)"/>
</clipPath>
</defs>
</svg>
