<svg width="76" height="76" viewBox="0 0 76 76" fill="none" xmlns="http://www.w3.org/2000/svg">
<g filter="url(#filter0_d_0_341)">
<circle cx="38" cy="35" r="23" fill="#60A8F0"/>
</g>
<g clip-path="url(#clip0_0_341)">
<path d="M34.2456 34.25C35.8999 34.25 37.2456 33.1565 37.2456 31.8125C37.2456 31.713 37.2061 31.6176 37.1358 31.5473C37.0655 31.477 36.9701 31.4375 36.8706 31.4375C36.7712 31.4375 36.6758 31.477 36.6055 31.5473C36.5351 31.6176 36.4956 31.713 36.4956 31.8125C36.4956 32.6471 35.6833 33.3418 34.6206 33.4761V32.2859C34.6603 32.2661 34.6984 32.2432 34.7344 32.2175L35.3709 31.7633C35.4877 31.6786 35.5826 31.5672 35.6477 31.4385C35.7129 31.3097 35.7464 31.1673 35.7456 31.023C35.7456 30.5279 35.3582 30.1251 34.8821 30.1251H33.6092C33.133 30.1251 32.7456 30.5279 32.7456 31.023C32.7448 31.1673 32.7783 31.3097 32.8435 31.4385C32.9087 31.5672 33.0036 31.6786 33.1204 31.7633L33.7568 32.2175C33.7929 32.2433 33.8309 32.2661 33.8706 32.2859V33.4761C32.8079 33.3418 31.9956 32.6471 31.9956 31.8125C31.9956 31.713 31.9561 31.6176 31.8858 31.5473C31.8155 31.477 31.7201 31.4375 31.6206 31.4375C31.5212 31.4375 31.4258 31.477 31.3555 31.5473C31.2851 31.6176 31.2456 31.713 31.2456 31.8125C31.2456 33.1565 32.5914 34.25 34.2456 34.25ZM33.5561 31.1527C33.5366 31.1373 33.521 31.1175 33.5105 31.0949C33.5001 31.0724 33.495 31.0477 33.4957 31.0228C33.4957 30.9427 33.5478 30.875 33.6093 30.875H34.8822C34.9437 30.875 34.9957 30.9427 34.9957 31.0228C34.9965 31.0477 34.9914 31.0724 34.9809 31.0949C34.9704 31.1175 34.9548 31.1373 34.9353 31.1527L34.2989 31.6069C34.2836 31.6186 34.2649 31.625 34.2457 31.625C34.2265 31.625 34.2078 31.6186 34.1925 31.6069L33.5561 31.1527Z" fill="white"/>
<path d="M36.4956 30.125C36.7027 30.125 36.8706 29.9571 36.8706 29.75C36.8706 29.5429 36.7027 29.375 36.4956 29.375C36.2885 29.375 36.1206 29.5429 36.1206 29.75C36.1206 29.9571 36.2885 30.125 36.4956 30.125Z" fill="white"/>
<path d="M31.9956 30.125C32.2027 30.125 32.3706 29.9571 32.3706 29.75C32.3706 29.5429 32.2027 29.375 31.9956 29.375C31.7885 29.375 31.6206 29.5429 31.6206 29.75C31.6206 29.9571 31.7885 30.125 31.9956 30.125Z" fill="white"/>
<path d="M44 37.625C44.2967 37.625 44.5867 37.537 44.8334 37.3722C45.08 37.2074 45.2723 36.9731 45.3858 36.699C45.4994 36.4249 45.5291 36.1233 45.4712 35.8324C45.4133 35.5414 45.2705 35.2741 45.0607 35.0643C44.8509 34.8545 44.5836 34.7117 44.2926 34.6538C44.0017 34.5959 43.7001 34.6256 43.426 34.7392C43.1519 34.8527 42.9176 35.045 42.7528 35.2916C42.588 35.5383 42.5 35.8283 42.5 36.125C42.5004 36.5227 42.6586 36.904 42.9398 37.1852C43.221 37.4664 43.6023 37.6246 44 37.625ZM44 35.375C44.1483 35.375 44.2933 35.419 44.4167 35.5014C44.54 35.5838 44.6362 35.7009 44.6929 35.838C44.7497 35.975 44.7645 36.1258 44.7356 36.2713C44.7067 36.4168 44.6352 36.5504 44.5303 36.6553C44.4255 36.7602 44.2918 36.8316 44.1463 36.8606C44.0008 36.8895 43.85 36.8747 43.713 36.8179C43.5759 36.7611 43.4588 36.665 43.3764 36.5417C43.294 36.4183 43.25 36.2733 43.25 36.125C43.2502 35.9262 43.3293 35.7355 43.4699 35.5949C43.6105 35.4543 43.8012 35.3752 44 35.375Z" fill="white"/>
<path d="M49.2508 38.375H47.0008V33.5C47.0009 33.4231 46.9772 33.348 46.9329 33.2851L44.3079 29.5351C44.2733 29.4857 44.2273 29.4454 44.1738 29.4175C44.1204 29.3897 44.061 29.3751 44.0007 29.3751C43.9404 29.3751 43.881 29.3897 43.8275 29.4175C43.774 29.4454 43.728 29.4857 43.6934 29.5351L41.0684 33.2851C41.0243 33.3481 41.0007 33.4231 41.0008 33.5V35.8467C40.4873 35.1563 39.8022 34.5835 38.9562 34.1417C39.7915 33.1599 40.2466 31.8843 40.2466 30.5C40.2486 29.8884 40.1558 29.2801 39.9716 28.6968C40.3369 28.504 40.6515 28.2278 40.8899 27.8905C41.1282 27.5532 41.2837 27.1645 41.3435 26.7558C41.4034 26.3472 41.366 25.9302 41.2343 25.5387C41.1027 25.1472 40.8805 24.7923 40.5859 24.5029C40.2913 24.2134 39.9325 23.9976 39.5388 23.8729C39.1451 23.7482 38.7275 23.7182 38.3199 23.7852C37.9124 23.8523 37.5264 24.0146 37.1934 24.2589C36.8604 24.5032 36.5898 24.8227 36.4035 25.1913C35.705 24.9761 34.9775 24.8694 34.2466 24.875C33.5158 24.8694 32.7884 24.9761 32.0899 25.1913C31.9036 24.8227 31.633 24.5033 31.3 24.259C30.967 24.0146 30.581 23.8523 30.1735 23.7853C29.766 23.7182 29.3484 23.7482 28.9546 23.8729C28.5609 23.9976 28.2021 24.2134 27.9075 24.5029C27.6129 24.7923 27.3907 25.1472 27.2591 25.5387C27.1274 25.9301 27.09 26.3471 27.1498 26.7558C27.2097 27.1645 27.3651 27.5532 27.6035 27.8905C27.8419 28.2278 28.1565 28.504 28.5217 28.6968C28.3375 29.2801 28.2447 29.8884 28.2466 30.5C28.2466 31.8843 28.702 33.16 29.537 34.1417C27.7114 35.0952 26.6349 36.6591 26.4141 38.6951C26.4136 38.6998 26.4132 38.7045 26.4128 38.7091L26.3768 39.2239C26.3756 39.2408 26.3756 39.2578 26.3768 39.2747C26.4068 39.7137 26.5645 40.1343 26.8306 40.4847C27.0967 40.8351 27.4595 41.0999 27.8743 41.2467C27.6268 41.7537 27.4991 42.3108 27.5008 42.875C27.5008 44.736 28.8466 46.25 30.5008 46.25C31.3915 46.25 32.1922 45.8107 32.7422 45.1151C33.2049 45.3677 33.7237 45.5 34.2508 45.5C34.778 45.5 35.2968 45.3677 35.7595 45.1151C36.3095 45.8107 37.1102 46.25 38.0008 46.25C39.1763 46.25 40.1954 45.4852 40.6872 44.375H49.2508C49.3503 44.375 49.4457 44.3355 49.516 44.2652C49.5863 44.1949 49.6258 44.0995 49.6258 44V38.75C49.6258 38.6506 49.5863 38.5552 49.516 38.4849C49.4457 38.4145 49.3503 38.375 49.2508 38.375ZM44.0008 30.4039L45.9056 33.125H42.0961L44.0008 30.4039ZM41.7508 33.875H46.2508V38.375H42.036C41.9769 37.9918 41.8814 37.6151 41.7508 37.25V33.875ZM40.6262 41.244C40.9795 41.1172 41.2958 40.9045 41.5465 40.625H42.1258V42.125H40.9252C40.8639 41.8197 40.7634 41.5236 40.6262 41.244ZM41.3327 38.769L41.3665 39.2497C41.3395 39.5671 41.2123 39.8677 41.0034 40.1082C40.7945 40.3486 40.5145 40.5165 40.204 40.5875C39.7339 40.0149 39.0902 39.626 38.3679 39.5264C38.2996 38.0011 37.7855 36.5937 36.9455 35.6084C37.4751 35.3847 37.9662 35.079 38.4008 34.7026C40.1186 35.5254 41.1307 36.9262 41.3327 38.7688V38.769ZM38.7466 24.5C39.1587 24.4999 39.5593 24.6355 39.8865 24.8858C40.2137 25.1362 40.4494 25.4874 40.5571 25.8851C40.6648 26.2828 40.6384 26.7049 40.4821 27.0861C40.3259 27.4674 40.0484 27.7865 39.6926 27.9943C39.4308 27.4457 39.0755 26.947 38.6426 26.5203C38.1958 26.0822 37.6767 25.7246 37.108 25.4635C37.2708 25.1717 37.5085 24.9286 37.7965 24.7593C38.0845 24.5899 38.4125 24.5004 38.7466 24.5ZM27.8716 26.375C27.8715 25.9596 28.0094 25.5559 28.2635 25.2274C28.5176 24.8988 28.8737 24.6639 29.2758 24.5596C29.6779 24.4553 30.1032 24.4875 30.4851 24.6511C30.8669 24.8147 31.1836 25.1004 31.3854 25.4635C30.8168 25.7246 30.2976 26.0821 29.8509 26.5203C29.4179 26.9469 29.0626 27.4457 28.8009 27.9942C28.5183 27.8287 28.284 27.5922 28.121 27.3082C27.958 27.0242 27.872 26.7025 27.8716 26.375ZM30.3768 27.0551C31.3281 26.1195 32.6665 25.625 34.2466 25.625C35.8268 25.625 37.1651 26.1195 38.1165 27.0551C39.0065 27.9303 39.4966 29.1537 39.4966 30.5C39.4966 31.8464 39.0065 33.0698 38.1165 33.9449C37.1651 34.8805 35.8269 35.375 34.2466 35.375C32.6663 35.375 31.3281 34.8805 30.3768 33.945C29.4868 33.0698 28.9966 31.8464 28.9966 30.5C28.9966 29.1537 29.4868 27.9303 30.3768 27.0551ZM27.1268 39.2496L27.1605 38.7689C27.3626 36.9262 28.3745 35.5254 30.0924 34.7025C30.5289 35.0805 31.0224 35.3872 31.5546 35.6112C30.7171 36.5968 30.2024 38.0083 30.1338 39.5262C29.4108 39.6259 28.7665 40.0156 28.2964 40.5889C27.9843 40.5191 27.7026 40.3516 27.4923 40.1108C27.2819 39.8699 27.1539 39.5682 27.1268 39.2496ZM30.5008 45.5C29.2602 45.5 28.2508 44.3225 28.2508 42.875C28.2508 41.4276 29.2602 40.25 30.5008 40.25C31.7415 40.25 32.7508 41.4276 32.7508 42.875C32.7508 44.3225 31.7415 45.5 30.5008 45.5ZM34.2508 44.75C33.8643 44.7487 33.4838 44.655 33.1408 44.4767C33.3796 43.9766 33.5026 43.4292 33.5008 42.875C33.5008 41.1604 32.3582 39.7414 30.8847 39.5286C30.9568 38.0661 31.4822 36.7292 32.3259 35.8782C32.9522 36.0458 33.5982 36.1289 34.2466 36.125C34.8972 36.1289 35.5454 36.0454 36.1737 35.8766C37.0201 36.7274 37.5455 38.059 37.6172 39.5287C36.1436 39.7413 35.0008 41.1603 35.0008 42.875C34.9991 43.4292 35.1221 43.9766 35.3608 44.4767C35.0179 44.655 34.6373 44.7487 34.2508 44.75ZM38.0008 45.5C36.7602 45.5 35.7508 44.3225 35.7508 42.875C35.7508 41.4276 36.7602 40.25 38.0008 40.25C39.2415 40.25 40.2508 41.4276 40.2508 42.875C40.2508 44.3225 39.2415 45.5 38.0008 45.5ZM41.0008 42.875H42.5008C42.6003 42.875 42.6957 42.8355 42.766 42.7652C42.8363 42.6949 42.8758 42.5995 42.8758 42.5V40.25C42.8758 40.1506 42.8363 40.0552 42.766 39.9849C42.6957 39.9145 42.6003 39.875 42.5008 39.875H41.9926C42.0613 39.6816 42.1031 39.4796 42.1166 39.2747C42.1178 39.2578 42.1178 39.2408 42.1166 39.2239L42.1097 39.125H43.6258V43.625H40.9252C40.9754 43.3782 41.0007 43.1269 41.0008 42.875ZM48.8758 43.625H44.3758V39.125H48.8758V43.625Z" fill="white"/>
<path d="M45.5002 42.8751H47.7502C47.8142 42.8751 47.877 42.8587 47.9328 42.8276C47.9887 42.7965 48.0356 42.7516 48.0692 42.6972C48.1028 42.6428 48.122 42.5808 48.1248 42.5169C48.1277 42.453 48.1142 42.3895 48.0856 42.3323L46.9606 40.0823C46.9295 40.0201 46.8816 39.9677 46.8224 39.9311C46.7631 39.8945 46.6949 39.8751 46.6252 39.8751C46.5556 39.8751 46.4873 39.8945 46.4281 39.9311C46.3689 39.9677 46.321 40.0201 46.2898 40.0823L45.1648 42.3323C45.1363 42.3895 45.1228 42.453 45.1256 42.5169C45.1285 42.5808 45.1476 42.6428 45.1812 42.6972C45.2148 42.7516 45.2618 42.7965 45.3176 42.8276C45.3735 42.8587 45.4363 42.8751 45.5002 42.8751ZM46.6252 41.0886L47.1435 42.1251H46.107L46.6252 41.0886Z" fill="white"/>
</g>
<defs>
<filter id="filter0_d_0_341" x="0" y="0" width="76" height="76" filterUnits="userSpaceOnUse" color-interpolation-filters="sRGB">
<feFlood flood-opacity="0" result="BackgroundImageFix"/>
<feColorMatrix in="SourceAlpha" type="matrix" values="0 0 0 0 0 0 0 0 0 0 0 0 0 0 0 0 0 0 127 0" result="hardAlpha"/>
<feOffset dy="3"/>
<feGaussianBlur stdDeviation="7.5"/>
<feComposite in2="hardAlpha" operator="out"/>
<feColorMatrix type="matrix" values="0 0 0 0 0.129412 0 0 0 0 0.176471 0 0 0 0 0.333333 0 0 0 0.15 0"/>
<feBlend mode="normal" in2="BackgroundImageFix" result="effect1_dropShadow_0_341"/>
<feBlend mode="normal" in="SourceGraphic" in2="effect1_dropShadow_0_341" result="shape"/>
</filter>
<clipPath id="clip0_0_341">
<rect width="24" height="24" fill="white" transform="translate(26 23)"/>
</clipPath>
</defs>
</svg>
