<svg width="76" height="76" viewBox="0 0 76 76" fill="none" xmlns="http://www.w3.org/2000/svg">
<g filter="url(#filter0_d_0_358)">
<circle cx="38" cy="35" r="23" fill="#B9ABFF"/>
</g>
<g clip-path="url(#clip0_0_358)">
<path d="M49.5999 37.3992C47.811 37.3992 46.9258 36.6668 45.9887 35.8914C45.7798 35.7185 45.5688 35.5449 45.3482 35.3777C45.6619 35.1236 45.8777 34.7687 45.9594 34.3734C46.0733 33.8422 45.9407 33.2881 45.5991 32.8659C45.2574 32.4437 44.7432 32.1987 44.2 32.1994H43.296C43.2701 32.1994 43.2471 32.1831 43.2383 32.1589C43.103 31.8555 42.9488 31.5607 42.7769 31.2766C43.903 32.0804 45.4467 31.9447 46.4152 30.9565C47.3836 29.9683 47.4883 28.4221 46.6618 27.3125C45.8353 26.2029 44.3239 25.8603 43.0999 26.5052C41.8756 27.1499 41.3034 28.5902 41.7511 29.8992C41.7456 29.8934 41.741 29.887 41.7355 29.8813L38.2161 26.1461C37.5236 25.4069 36.4399 25.185 35.5125 25.5924L31.1255 27.5042C30.4667 27.7904 30.0415 28.4412 30.0441 29.1593C30.0455 29.7657 30.3521 30.3308 30.8598 30.6624C31.3674 30.9942 32.0081 31.048 32.564 30.8058L36.1406 29.2415L38.0035 31.2202L29.342 35.0022C28.462 34.45 27.4385 34.1705 26.4001 34.1993C26.1791 34.1993 26 34.3784 26 34.5994C26 34.8202 26.1791 34.9993 26.4001 34.9993C28.1894 34.9993 29.0745 35.7319 30.0117 36.5073C31.0167 37.3394 32.0562 38.1994 34.1335 38.1994C36.2109 38.1994 37.2504 37.3394 38.2554 36.5073C39.1926 35.7319 40.0777 34.9993 41.8672 34.9993C43.6567 34.9993 44.5414 35.7319 45.4786 36.5073C46.4836 37.3394 47.5226 38.1994 49.5999 38.1994C49.8209 38.1994 50 38.0203 50 37.7993C50 37.5785 49.8209 37.3992 49.5999 37.3992ZM44.4001 26.9994C45.5046 26.9994 46.4 27.8948 46.4 28.9993C46.4 30.1039 45.5046 30.9993 44.4001 30.9993C43.2954 30.9993 42.4 30.1039 42.4 28.9993C42.4013 27.8953 43.296 27.0007 44.4001 26.9994ZM37.7453 35.8914C36.8082 36.6668 35.923 37.3992 34.1335 37.3992C32.3442 37.3992 31.4589 36.6668 30.5218 35.8914C30.3821 35.7756 30.2415 35.6597 30.0979 35.5455L38.8439 31.7259C38.9631 31.6737 39.0496 31.567 39.0757 31.4395C39.1017 31.3121 39.0644 31.1799 38.9752 31.085L36.7192 28.6891C36.4859 28.4479 36.1279 28.3762 35.8196 28.5087L32.2441 30.0726C31.7365 30.2931 31.1462 30.0604 30.9257 29.5528C30.8713 29.4288 30.8435 29.2948 30.8441 29.1593C30.8419 28.7599 31.0775 28.3978 31.4435 28.2381L35.8331 26.3252C36.4506 26.0538 37.172 26.2016 37.6329 26.6938L41.1523 30.4288C41.7158 31.0288 42.1726 31.7204 42.5031 32.4741C42.6371 32.7932 42.9499 33.0003 43.296 32.9994H44.2C44.5019 32.9988 44.7875 33.1351 44.9774 33.3698C45.1695 33.6051 45.2427 33.9156 45.1757 34.2117C45.1082 34.5133 44.9007 34.7645 44.6174 34.8881C43.7805 34.4124 42.8296 34.1744 41.8672 34.1993C39.7899 34.1993 38.7504 35.0593 37.7453 35.8914Z" fill="white"/>
<path d="M49.5999 40.5994C47.811 40.5994 46.9258 39.8668 45.9887 39.0913C44.9836 38.2593 43.9445 37.3992 41.8672 37.3992C39.7899 37.3992 38.7504 38.2593 37.7453 39.0913C36.8082 39.8668 35.923 40.5994 34.1335 40.5994C32.3442 40.5994 31.4589 39.8668 30.5218 39.0913C29.5167 38.2593 28.4774 37.3992 26.4001 37.3992C26.1791 37.3992 26 37.5785 26 37.7993C26 38.0203 26.1791 38.1994 26.4001 38.1994C28.1894 38.1994 29.0745 38.932 30.0117 39.7073C31.0167 40.5393 32.0562 41.3994 34.1335 41.3994C36.2109 41.3994 37.2504 40.5393 38.2554 39.7073C39.1926 38.932 40.0777 38.1994 41.8672 38.1994C43.6567 38.1994 44.5414 38.932 45.4786 39.7073C46.4836 40.5393 47.5226 41.3994 49.5999 41.3994C49.8209 41.3994 50 41.2203 50 40.9993C50 40.7784 49.8209 40.5994 49.5999 40.5994Z" fill="white"/>
<path d="M49.5999 43.7993C47.811 43.7993 46.9258 43.0667 45.9887 42.2913C44.9836 41.4594 43.9445 40.5994 41.8672 40.5994C39.7899 40.5994 38.7504 41.4594 37.7453 42.2913C36.8082 43.0667 35.923 43.7993 34.1335 43.7993C32.3442 43.7993 31.4589 43.0667 30.5218 42.2913C29.5167 41.4594 28.4774 40.5994 26.4001 40.5994C26.1791 40.5994 26 40.7784 26 40.9993C26 41.2203 26.1791 41.3994 26.4001 41.3994C28.1894 41.3994 29.0745 42.132 30.0117 42.9074C31.0167 43.7393 32.0562 44.5993 34.1335 44.5993C36.2109 44.5993 37.2504 43.7393 38.2554 42.9074C39.1926 42.132 40.0777 41.3994 41.8672 41.3994C43.6567 41.3994 44.5414 42.132 45.4786 42.9074C46.4836 43.7393 47.5226 44.5993 49.5999 44.5993C49.8209 44.5993 50 44.4202 50 44.1994C50 43.9784 49.8209 43.7993 49.5999 43.7993Z" fill="white"/>
</g>
<defs>
<filter id="filter0_d_0_358" x="0" y="0" width="76" height="76" filterUnits="userSpaceOnUse" color-interpolation-filters="sRGB">
<feFlood flood-opacity="0" result="BackgroundImageFix"/>
<feColorMatrix in="SourceAlpha" type="matrix" values="0 0 0 0 0 0 0 0 0 0 0 0 0 0 0 0 0 0 127 0" result="hardAlpha"/>
<feOffset dy="3"/>
<feGaussianBlur stdDeviation="7.5"/>
<feComposite in2="hardAlpha" operator="out"/>
<feColorMatrix type="matrix" values="0 0 0 0 0.129412 0 0 0 0 0.176471 0 0 0 0 0.333333 0 0 0 0.15 0"/>
<feBlend mode="normal" in2="BackgroundImageFix" result="effect1_dropShadow_0_358"/>
<feBlend mode="normal" in="SourceGraphic" in2="effect1_dropShadow_0_358" result="shape"/>
</filter>
<clipPath id="clip0_0_358">
<rect width="24" height="24" fill="white" transform="translate(26 23)"/>
</clipPath>
</defs>
</svg>
